<?xml version="1.0" encoding="utf-8"?>
<!-- Generator: Adobe Illustrator 21.0.0, SVG Export Plug-In . SVG Version: 6.00 Build 0)  -->
<svg version="1.1" id="Layer_1" xmlns="http://www.w3.org/2000/svg" xmlns:xlink="http://www.w3.org/1999/xlink" x="0px" y="0px"
	 viewBox="0 0 545 545" style="enable-background:new 0 0 545 545;" xml:space="preserve">
<style type="text/css">
	.st0{fill:#2D3249;}
	.st1{fill:#D03352;}
	.st2{fill:#F8BF60;}
	.st3{fill:#1AA9C9;}
	.st4{fill:#F1F2F2;}
</style>
<g>
	<g>
		<circle class="st2" cx="272.8" cy="527.2" r="11.2"/>
		<path class="st4" d="M275.1,530.3c0,0.7-0.2,1.3-0.7,1.8s-1.1,0.7-1.8,0.7c-0.7,0-1.3-0.2-1.8-0.7c-0.5-0.5-0.7-1.1-0.7-1.8v-5.7
			c0-0.7,0.2-1.3,0.7-1.8c0.5-0.5,1.1-0.7,1.8-0.7c0.7,0,1.3,0.2,1.8,0.7c0.5,0.5,0.7,1.1,0.7,1.8V530.3z M273.5,524.6
			c0-0.2-0.1-0.5-0.3-0.6c-0.2-0.2-0.4-0.3-0.6-0.3s-0.5,0.1-0.6,0.3c-0.2,0.2-0.3,0.4-0.3,0.6v5.7c0,0.2,0.1,0.5,0.3,0.6
			c0.2,0.2,0.4,0.3,0.6,0.3s0.5-0.1,0.6-0.3c0.2-0.2,0.3-0.4,0.3-0.6V524.6z"/>
	</g>
	<g>
		
			<ellipse transform="matrix(8.202598e-02 -0.9966 0.9966 8.202598e-02 -246.8096 783.3707)" class="st3" cx="301.8" cy="525.7" rx="11.2" ry="11.2"/>
		<path class="st4" d="M301.9,530.9l-0.9-8l-1.3,0.1l-0.1-1.1c0.4-0.1,0.7-0.3,1-0.5c0.3-0.3,0.5-0.6,0.6-0.9l1.1-0.1l1.1,10.3
			L301.9,530.9z"/>
	</g>
	<g>
		
			<ellipse transform="matrix(0.1163 -0.9932 0.9932 0.1163 -306.811 706.5076)" class="st3" cx="243.6" cy="525.7" rx="11.2" ry="11.2"/>
		<g>
			<path class="st4" d="M237.9,530.7l1.4-8.3l-1.4-0.2l0.2-1.1c0.4,0,0.8-0.1,1.2-0.3c0.4-0.2,0.7-0.5,0.9-0.8l1.1,0.2l-1.8,10.8
				L237.9,530.7z"/>
			<path class="st4" d="M248.5,529.9c-0.1,0.7-0.5,1.3-1.1,1.7c-0.6,0.4-1.2,0.6-1.9,0.5c-0.7-0.1-1.3-0.5-1.7-1.1
				c-0.4-0.6-0.6-1.2-0.5-2l1-5.9c0.1-0.7,0.5-1.3,1.1-1.7c0.6-0.4,1.2-0.6,2-0.5c0.7,0.1,1.3,0.5,1.7,1.1s0.6,1.2,0.5,2
				L248.5,529.9z M247.8,523.7c0-0.3,0-0.5-0.2-0.7c-0.2-0.2-0.4-0.3-0.6-0.4c-0.3,0-0.5,0-0.7,0.2c-0.2,0.2-0.3,0.4-0.4,0.6l-1,5.9
				c0,0.3,0,0.5,0.2,0.7c0.2,0.2,0.4,0.3,0.6,0.4c0.3,0,0.5,0,0.7-0.2c0.2-0.2,0.3-0.4,0.4-0.6L247.8,523.7z"/>
		</g>
	</g>
	<g>
		<path class="st0" d="M342.7,518.9c-0.1-0.4-0.1-0.8-0.2-1.1c-0.4-1.5-1-2.9-1.9-4c-0.4-0.6-0.9-1.1-1.5-1.6c0,0-0.1-0.1-0.2-0.1
			c-1-0.9-2.2-1.6-3.5-2.1c0,0-0.1,0-0.1,0c-1.6-0.6-3.2-0.8-5-0.6c-0.4,0-0.8,0.1-1.2,0.2c-0.1,0-0.2,0-0.3,0l0,0c0,0,0,0,0,0
			c-6,1.5-9.7,7.5-8.2,13.5c1.5,6,7.5,9.7,13.5,8.2c0,0,0,0,0,0l0,0c0.3-0.1,0.5-0.1,0.7-0.2c0.1,0,0.2-0.1,0.4-0.1
			c0.1-0.1,0.3-0.1,0.4-0.2c0.2-0.1,0.4-0.2,0.6-0.3c0.1,0,0.2-0.1,0.3-0.1c0.2-0.1,0.5-0.2,0.7-0.4c1.9-1.1,3.3-2.8,4.3-4.7
			c0,0,0-0.1,0-0.1c0.8-1.6,1.2-3.4,1.1-5.3c0,0,0,0,0,0C342.8,519.6,342.7,519.2,342.7,518.9z"/>
		<g>
			<path class="st4" d="M325.8,519.1c-0.2-1-0.1-1.9,0.3-2.5c0.4-0.6,0.9-0.9,1.7-1.1c0.7-0.1,1.4,0,2,0.4c0.6,0.4,1,1,1.1,1.7
				c0.2,0.7,0.1,1.5,0,2.2c-0.1,0.4-0.4,1.2-0.8,2.2c-0.1,0.3-0.3,0.7-0.5,1.3l-0.2,0.5c-0.1,0.3-0.2,0.6-0.3,0.8c0,0.1,0,0.1,0,0.2
				l3.2-0.7l0.3,1.6l-5.2,1.1l-0.3-1.5c0,0,0.1-0.3,0.2-0.7c0.1-0.2,0.2-0.4,0.3-0.6l0.3-0.7c0.2-0.4,0.4-1,0.8-1.9
				c0.3-0.8,0.6-1.5,0.7-2.1c0.1-0.5,0.1-1,0-1.4c-0.1-0.3-0.2-0.6-0.5-0.8c-0.3-0.2-0.5-0.3-0.8-0.2c-0.5,0.1-0.7,0.4-0.8,1
				c0,0.2,0,0.4,0,0.6l0.1,0.4l-1.6,0.3L325.8,519.1z"/>
			<path class="st4" d="M338.5,521.9c0.2,0.7,0,1.4-0.4,2c-0.4,0.6-1,1-1.7,1.1l-0.1,0c-0.7,0.2-1.4,0-2-0.4c-0.6-0.4-1-0.9-1.1-1.7
				l-0.2-1c-0.1-0.7,0-1.3,0.3-1.9c0.1-0.3,0.3-0.5,0.5-0.7c-0.5-0.1-0.9-0.4-1.2-0.9c-0.2-0.2-0.3-0.6-0.4-1l-0.1-0.6
				c-0.1-0.7-0.1-1.3,0.3-1.9c0.3-0.6,0.9-1,1.7-1.2l0.1,0c0.8-0.2,1.4,0,2,0.4c0.5,0.4,0.8,0.9,1,1.6l0.1,0.6
				c0.1,0.7,0.1,1.3-0.2,1.8c-0.1,0.2-0.3,0.4-0.5,0.6c0.5,0.2,1,0.5,1.4,1c0.2,0.3,0.3,0.6,0.4,1L338.5,521.9z M335.8,516.8
				c-0.2-0.7-0.5-1.1-1-1.2c-0.1,0-0.2,0-0.4,0c-0.3,0.1-0.5,0.2-0.6,0.4c-0.1,0.2-0.2,0.3-0.2,0.5c0,0.2,0,0.5,0.1,0.8
				c0.1,0.5,0.3,0.8,0.4,1c0.2,0.2,0.5,0.3,0.9,0.2c0.4-0.1,0.6-0.3,0.8-0.6C335.9,517.5,335.9,517.2,335.8,516.8z M336.7,521.5
				c-0.1-0.6-0.4-1-0.7-1.2c-0.2-0.1-0.4-0.1-0.6,0c-0.4,0.1-0.7,0.3-0.8,0.7c0,0.2,0,0.5,0.1,0.9l0.1,0.5c0.1,0.4,0.2,0.6,0.5,0.8
				c0.2,0.1,0.5,0.2,0.7,0.1c0.4-0.1,0.7-0.4,0.8-0.8c0-0.2,0-0.3,0-0.5L336.7,521.5z"/>
		</g>
	</g>
	<g>
		<path class="st0" d="M216.5,509.6C216.5,509.6,216.5,509.6,216.5,509.6L216.5,509.6c-0.2,0-0.3-0.1-0.5-0.1
			c-0.3-0.1-0.6-0.1-1-0.2c-1.6-0.2-3.2,0-4.7,0.5c-0.2,0.1-0.4,0.1-0.5,0.2c-1.2,0.5-2.4,1.2-3.4,2c0,0-0.1,0.1-0.2,0.1
			c-0.5,0.5-1,1-1.5,1.6c-0.9,1.2-1.5,2.5-1.9,4c-0.1,0.4-0.2,0.8-0.2,1.1c-0.1,0.4-0.1,0.7-0.1,1.1c0,0.4,0,0.8,0,1.2
			c0.1,1.4,0.5,2.8,1.1,4.1c0.2,0.4,0.5,0.8,0.7,1.3c0.5,0.8,1.1,1.5,1.8,2.2c0.1,0.1,0.2,0.2,0.4,0.3c0.4,0.4,0.9,0.7,1.4,1
			c0.6,0.3,1.1,0.6,1.8,0.9c0.1,0,0.2,0.1,0.3,0.1c0.1,0,0.2,0.1,0.4,0.1c0.2,0.1,0.5,0.2,0.7,0.2l0,0c0,0,0,0,0,0
			c6,1.5,12.1-2.2,13.5-8.2C226.2,517.1,222.5,511.1,216.5,509.6z"/>
		<g>
			<path class="st4" d="M210.8,516l-0.6,2.2c0.2-0.2,0.5-0.3,0.8-0.3c0.2,0,0.4,0,0.6,0c0.7,0.2,1.2,0.5,1.4,1.1
				c0.2,0.5,0.2,1.1,0,1.9l-0.6,2.3c-0.2,0.8-0.6,1.3-1.2,1.7c-0.6,0.4-1.3,0.4-2,0.3c-0.7-0.2-1.2-0.6-1.6-1.2
				c-0.3-0.6-0.4-1.2-0.2-1.9l0.1-0.3l1.6,0.3l-0.1,0.4c-0.1,0.4,0,0.7,0.3,1c0.1,0.1,0.2,0.1,0.3,0.1c0.7,0.2,1.1-0.1,1.2-0.8
				l0.6-2.6c0.1-0.3,0-0.6-0.2-0.8c-0.1-0.1-0.2-0.2-0.4-0.3c-0.3-0.1-0.5,0-0.7,0.2c-0.2,0.2-0.3,0.3-0.3,0.6l-0.1,0.3l-1.6-0.4
				l1.4-5.7l4.7,1.2l-0.4,1.6L210.8,516z"/>
			<path class="st4" d="M216,525.2c0.7,0.2,1.2-0.1,1.4-0.7l0.2-0.6c0.3-1.1-0.2-1.8-1.3-2l0.3-1.4c0.6,0.2,1.1,0.1,1.5-0.2
				c0.3-0.2,0.6-0.6,0.7-1.2l0.1-0.2c0.2-0.7,0-1.1-0.7-1.3c-0.3-0.1-0.6,0-0.8,0.2c-0.2,0.2-0.3,0.4-0.4,0.7l-0.1,0.3l-1.6-0.4
				l0.1-0.2c0.2-0.7,0.5-1.3,1-1.7c0.6-0.4,1.3-0.5,2-0.3c0.8,0.2,1.3,0.6,1.6,1.2c0.3,0.6,0.4,1.2,0.2,1.8l-0.1,0.4
				c-0.2,0.7-0.5,1.2-1,1.5c-0.2,0.2-0.5,0.3-0.7,0.4c0.4,0.4,0.7,0.9,0.8,1.5c0.1,0.3,0.1,0.7,0,1l-0.2,0.8
				c-0.2,0.8-0.6,1.3-1.3,1.7c-0.6,0.3-1.3,0.4-2,0.3c-0.7-0.2-1.2-0.6-1.6-1.2c-0.4-0.6-0.5-1.3-0.3-1.9l0.1-0.3l1.6,0.3l-0.1,0.4
				c0,0.3,0,0.5,0.1,0.7C215.5,525,215.7,525.1,216,525.2z"/>
		</g>
	</g>
	<g>
		<path class="st0" d="M163.5,490.2C163.5,490.2,163.5,490.2,163.5,490.2L163.5,490.2c-3.7-1.8-7.9-1.5-11.1,0.6
			c-0.7,0.5-1.4,1-2,1.6c-0.3,0.3-0.5,0.5-0.7,0.8c-0.5,0.6-0.9,1.2-1.2,1.9c-0.9,1.7-1.2,3.6-1.2,5.4c0,0.5,0.1,1,0.2,1.5
			c0.3,1.6,0.9,3.2,1.8,4.6c0.1,0.1,0.1,0.2,0.2,0.3c0.6,0.8,1.3,1.6,2.2,2.2c0.5,0.4,1,0.7,1.6,1c0.1,0,0.1,0.1,0.2,0.1l0,0
			c0,0,0,0,0,0c5.5,2.8,12.3,0.5,15-5C171.2,499.7,169,492.9,163.5,490.2z"/>
		<g>
			<path class="st4" d="M156.7,495.5l-1.1,2.1c0.3-0.1,0.5-0.2,0.9-0.2c0.2,0,0.3,0.1,0.5,0.2c0.6,0.3,1,0.8,1.1,1.4
				c0.1,0.5-0.1,1.1-0.4,1.8l-1.1,2.1c-0.4,0.7-0.9,1.2-1.6,1.4c-0.7,0.2-1.3,0.1-2-0.2c-0.6-0.3-1.1-0.8-1.2-1.5
				c-0.2-0.7-0.1-1.3,0.2-1.9l0.1-0.2l1.5,0.6l-0.1,0.3c-0.2,0.4-0.1,0.7,0.1,1c0.1,0.1,0.1,0.1,0.2,0.2c0.6,0.3,1.1,0.2,1.4-0.5
				l1.2-2.4c0.1-0.3,0.2-0.6,0-0.9c-0.1-0.1-0.2-0.3-0.3-0.3c-0.3-0.1-0.5-0.1-0.7,0c-0.2,0.1-0.3,0.3-0.4,0.5l-0.1,0.3l-1.5-0.8
				l2.7-5.2l4.3,2.2l-0.8,1.5L156.7,495.5z"/>
			<path class="st4" d="M160,498.8c0.5-0.9,1.1-1.5,1.8-1.7c0.6-0.2,1.3-0.1,2,0.2c0.6,0.3,1.1,0.9,1.3,1.6c0.2,0.7,0.1,1.4-0.2,2
				c-0.3,0.7-0.8,1.2-1.4,1.7c-0.3,0.3-1,0.6-2,1.2c-0.3,0.1-0.7,0.4-1.3,0.7l-0.5,0.3c-0.3,0.2-0.5,0.3-0.7,0.4
				c-0.1,0.1-0.1,0.1-0.1,0.1l2.9,1.5l-0.7,1.4l-4.7-2.4l0.7-1.3c0,0,0.2-0.2,0.6-0.4c0.2-0.1,0.4-0.2,0.6-0.3l0.7-0.3
				c0.4-0.2,1-0.5,1.8-0.9c0.8-0.4,1.4-0.8,1.9-1.2c0.4-0.3,0.7-0.7,0.9-1c0.2-0.3,0.2-0.6,0.1-0.9c-0.1-0.3-0.2-0.5-0.5-0.7
				c-0.4-0.2-0.8-0.1-1.2,0.2c-0.1,0.1-0.3,0.3-0.4,0.5l-0.2,0.4l-1.4-0.7L160,498.8z"/>
		</g>
	</g>
	<g>
		<path class="st0" d="M116.3,459.3C116.3,459.3,116.3,459.3,116.3,459.3L116.3,459.3c-0.1-0.1-0.3-0.2-0.4-0.3
			c-0.3-0.2-0.5-0.4-0.8-0.6c-3.9-2.5-8.8-2.3-12.5,0.3c-0.5,0.3-0.9,0.7-1.4,1.1c-0.3,0.3-0.5,0.5-0.8,0.8
			c-0.5,0.6-0.9,1.2-1.3,1.9c-0.9,1.6-1.3,3.4-1.3,5.2c0,0.4,0,0.8,0.1,1.2c0.3,2.8,1.6,5.5,3.9,7.4l0,0c0,0,0,0,0,0
			c4.7,4,11.8,3.3,15.8-1.4C121.6,470.3,121,463.3,116.3,459.3z"/>
		<g>
			<path class="st4" d="M108.7,463l-1.5,1.8c0.3-0.1,0.6-0.1,0.9,0c0.2,0.1,0.3,0.2,0.5,0.3c0.6,0.5,0.8,1,0.7,1.6
				c-0.1,0.5-0.3,1.1-0.8,1.7l-1.5,1.8c-0.5,0.6-1.1,0.9-1.9,1c-0.7,0.1-1.3-0.2-1.9-0.6c-0.6-0.5-0.8-1.1-0.9-1.8
				c0-0.7,0.2-1.3,0.7-1.8l0.2-0.2l1.3,0.9l-0.2,0.3c-0.2,0.4-0.3,0.7-0.2,1c0,0.1,0.1,0.2,0.2,0.2c0.5,0.4,1,0.4,1.5-0.1l1.7-2
				c0.2-0.2,0.3-0.5,0.2-0.8c0-0.1-0.1-0.3-0.3-0.4c-0.2-0.2-0.5-0.2-0.7-0.2c-0.2,0.1-0.4,0.2-0.5,0.4l-0.2,0.2l-1.3-1.1l3.8-4.5
				l3.7,3.2l-1.1,1.2L108.7,463z"/>
			<path class="st4" d="M107.6,474.1l5.4-6.3l-1.1-0.9l0.7-0.9c0.3,0.2,0.7,0.4,1.2,0.4c0.4,0,0.8,0,1.2-0.2l0.9,0.8l-7,8.2
				L107.6,474.1z"/>
		</g>
	</g>
	<g>
		<path class="st0" d="M77.3,418.1C77.3,418.1,77.3,418.1,77.3,418.1L77.3,418.1c-0.1-0.2-0.3-0.3-0.4-0.5c-0.4-0.5-0.9-1-1.3-1.4
			c-0.4-0.4-0.9-0.7-1.4-1c-0.1,0-0.1-0.1-0.2-0.1c-1.9-1.1-4-1.6-6.1-1.5c0,0,0,0,0,0c-2.2,0.1-4.3,0.8-6.2,2.2
			c-0.8,0.6-1.5,1.3-2.1,2c-3.1,3.9-3.4,9.5-0.3,13.7l0,0c0,0,0,0,0,0c3.7,5,10.7,6.1,15.6,2.4C79.9,430.1,81,423.1,77.3,418.1z"/>
		<g>
			<path class="st4" d="M69,419.5l-1.9,1.3c0.3,0,0.6,0.1,0.8,0.3c0.1,0.1,0.3,0.2,0.4,0.4c0.4,0.6,0.5,1.2,0.3,1.7
				c-0.2,0.5-0.6,1-1.2,1.4l-1.9,1.3c-0.7,0.5-1.3,0.6-2.1,0.5c-0.7-0.1-1.2-0.5-1.7-1.1c-0.4-0.6-0.6-1.2-0.4-1.9
				c0.1-0.7,0.5-1.2,1.1-1.6l0.2-0.1l1,1.2l-0.3,0.2c-0.3,0.3-0.5,0.6-0.4,0.9c0,0.1,0.1,0.2,0.1,0.3c0.4,0.6,0.9,0.6,1.4,0.2
				l2.2-1.5c0.3-0.2,0.4-0.4,0.4-0.7c0-0.1,0-0.3-0.1-0.5c-0.2-0.2-0.4-0.4-0.6-0.3c-0.2,0-0.4,0.1-0.6,0.2l-0.2,0.2l-1-1.4l4.8-3.4
				l2.8,4l-1.3,0.9L69,419.5z"/>
			<path class="st4" d="M69.3,431.7c-0.6,0.4-1.2,0.6-1.9,0.4c-0.7-0.1-1.3-0.5-1.7-1.1c-0.4-0.6-0.6-1.2-0.5-2
				c0.1-0.7,0.5-1.3,1-1.7l4.8-3.4c0.6-0.4,1.2-0.6,1.9-0.4c0.7,0.1,1.3,0.5,1.7,1.1c0.4,0.6,0.6,1.2,0.4,2
				c-0.1,0.7-0.5,1.3-1.1,1.7L69.3,431.7z M73.2,426.9c0.2-0.1,0.3-0.4,0.4-0.6c0-0.3,0-0.5-0.2-0.7c-0.2-0.2-0.4-0.3-0.6-0.4
				c-0.3,0-0.5,0-0.7,0.2l-4.8,3.4c-0.2,0.1-0.3,0.4-0.4,0.6c0,0.3,0,0.5,0.2,0.7c0.2,0.2,0.4,0.3,0.6,0.4c0.3,0,0.5,0,0.7-0.2
				L73.2,426.9z"/>
		</g>
	</g>
	<g>
		<path class="st0" d="M23.7,328.1c6.1-1.1,10.1-6.9,9.1-13c0,0,0,0,0,0h0c-0.6-3.6-3-6.5-6-8c-1.4-0.7-3-1.2-4.7-1.2
			c-0.7,0-1.5,0-2.3,0.2c-1.1,0.2-2.2,0.6-3.2,1.1c-1,0.5-1.9,1.1-2.6,1.9c-0.3,0.3-0.6,0.7-0.9,1c-0.6,0.8-1.1,1.6-1.5,2.5
			c0,0.1-0.1,0.2-0.1,0.2c-0.5,1.3-0.8,2.6-0.9,4c0,0,0,0.1,0,0.1c0,0.7,0,1.4,0.2,2.2l0,0c0,0,0,0,0,0
			C11.8,325.1,17.6,329.2,23.7,328.1z"/>
		<g>
			<path class="st4" d="M19.2,311l7.2,1.8l0.3,1.6l-6.7,1.1l0.2,1l-1.6,0.3l-0.2-1l-2.3,0.4l-0.3-1.6l2.3-0.4l-0.5-2.9L19.2,311z
				 M19.7,313.9l3.3-0.6l-3.6-0.8L19.7,313.9z"/>
			<path class="st4" d="M19.8,323.5c-0.7,0.1-1.4,0-1.9-0.5c-0.6-0.4-0.9-1-1-1.7l0-0.1c-0.1-0.7,0-1.4,0.4-2c0.4-0.6,1-0.9,1.7-1.1
				l1-0.2c0.7-0.1,1.3,0,1.8,0.4c0.2,0.2,0.5,0.3,0.6,0.6c0.1-0.5,0.5-0.9,0.9-1.2c0.2-0.2,0.6-0.3,1-0.3l0.6-0.1
				c0.7-0.1,1.3,0,1.8,0.3c0.6,0.4,0.9,0.9,1.1,1.7l0,0.1c0.1,0.8,0,1.4-0.5,2c-0.4,0.5-0.9,0.8-1.6,0.9l-0.6,0.1
				c-0.7,0.1-1.2,0-1.7-0.3c-0.2-0.1-0.4-0.3-0.6-0.5c-0.2,0.5-0.5,1-1,1.3c-0.3,0.2-0.6,0.3-1,0.4L19.8,323.5z M20.2,321.7
				c0.6-0.1,1-0.3,1.2-0.7c0.1-0.2,0.1-0.4,0.1-0.6c-0.1-0.4-0.3-0.7-0.7-0.8c-0.2-0.1-0.5-0.1-0.9,0l-0.5,0.1
				c-0.4,0.1-0.6,0.2-0.8,0.5c-0.2,0.2-0.2,0.5-0.2,0.7c0.1,0.4,0.4,0.7,0.8,0.8c0.1,0,0.3,0,0.5,0L20.2,321.7z M24.9,321
				c0.7-0.1,1.1-0.4,1.3-0.9c0-0.1,0-0.2,0-0.4c0-0.3-0.2-0.5-0.3-0.7c-0.1-0.1-0.3-0.2-0.5-0.2c-0.2,0-0.5,0-0.7,0
				c-0.5,0.1-0.8,0.2-1,0.4c-0.2,0.2-0.3,0.5-0.3,0.9c0.1,0.4,0.3,0.7,0.6,0.8C24.2,321.1,24.5,321.1,24.9,321z"/>
		</g>
	</g>
	<g>
		<path class="st0" d="M17.6,268.9c6.2,0.4,11.5-4.2,11.9-10.4c0,0,0,0,0,0h0c0.3-4-1.6-7.6-4.5-9.8c-0.4-0.3-0.8-0.5-1.2-0.7
			c-0.3-0.2-0.6-0.3-1-0.5c-1.2-0.5-2.4-0.8-3.7-0.9c-0.4,0-0.8,0-1.1,0c-0.7,0-1.4,0.1-2,0.3c-0.6,0.1-1.1,0.3-1.6,0.5
			c-1.6,0.6-3,1.5-4.1,2.7c-0.1,0.1-0.1,0.2-0.2,0.3c-0.4,0.4-0.8,0.9-1.1,1.4c-0.5,0.8-0.9,1.7-1.2,2.6c0,0.1-0.1,0.2-0.1,0.3
			c-0.2,0.7-0.3,1.5-0.4,2.2C6.7,263.1,11.4,268.4,17.6,268.9z"/>
		<g>
			<path class="st4" d="M16.7,251.3l6.7,3.3l-0.1,1.7l-6.8-0.4l-0.1,1.1l-1.6-0.1l0.1-1.1l-2.3-0.1l0.1-1.7l2.3,0.1l0.2-2.9
				L16.7,251.3z M16.5,254.2l3.4,0.2l-3.3-1.5L16.5,254.2z"/>
			<path class="st4" d="M22.9,263.6l-1.6-0.1l-9-2.8l0.1-1.6l9,2.8l0.2-3.3l1.6,0.1L22.9,263.6z"/>
		</g>
	</g>
	<g>
		<path class="st1" d="M19.8,239.4c6.1,1.1,11.9-3,13-9.1c0,0,0,0,0,0h0c0-0.2,0.1-0.5,0.1-0.7c0.1-0.5,0.1-1,0.1-1.6
			c-0.1-2.9-1.3-5.7-3.4-7.7c0,0,0,0,0-0.1c-0.6-0.6-1.3-1.1-2.1-1.6c-0.3-0.2-0.6-0.3-0.9-0.5c-0.6-0.3-1.1-0.5-1.8-0.7
			c-0.4-0.1-0.7-0.2-1.1-0.3c-0.4-0.1-0.8-0.1-1.1-0.1c-1.7-0.1-3.4,0.2-5,0.8c-0.1,0-0.2,0.1-0.4,0.1c0,0,0,0,0,0
			c-0.5,0.2-1,0.5-1.5,0.8c-0.3,0.2-0.6,0.4-0.8,0.6c-0.6,0.5-1.2,1-1.7,1.7c-0.1,0.2-0.3,0.3-0.4,0.5c-1,1.4-1.7,3-2.1,4.7h0
			c0,0,0,0,0,0C9.7,232.5,13.7,238.3,19.8,239.4z"/>
		<g>
			<path class="st4" d="M25,223c1,0.2,1.7,0.6,2.2,1.3c0.4,0.6,0.5,1.2,0.4,2c-0.1,0.7-0.5,1.3-1.1,1.7c-0.6,0.4-1.3,0.5-2,0.4
				c-0.7-0.1-1.4-0.4-2-0.9c-0.3-0.2-0.9-0.8-1.7-1.6c-0.2-0.2-0.6-0.6-1-1l-0.4-0.4c-0.2-0.2-0.4-0.4-0.6-0.6
				c-0.1-0.1-0.1-0.1-0.1-0.1L18,227l-1.6-0.3l1-5.2l1.5,0.3c0,0,0.2,0.2,0.5,0.5c0.1,0.1,0.3,0.3,0.5,0.5l0.5,0.5
				c0.3,0.3,0.8,0.8,1.4,1.5c0.6,0.6,1.2,1.1,1.7,1.5c0.4,0.3,0.8,0.5,1.2,0.5c0.3,0.1,0.6,0,0.9-0.1c0.3-0.2,0.4-0.4,0.5-0.7
				c0.1-0.5-0.1-0.8-0.6-1.1c-0.2-0.1-0.4-0.2-0.6-0.2l-0.4-0.1l0.3-1.6L25,223z"/>
			<path class="st4" d="M17.2,231.3c-0.1,0.7,0.1,1.2,0.8,1.3l0.6,0.1c1.1,0.2,1.7-0.3,2-1.4l1.4,0.3c-0.1,0.6,0,1.1,0.3,1.5
				c0.3,0.3,0.7,0.6,1.2,0.7l0.2,0c0.7,0.1,1.1-0.1,1.2-0.7c0.1-0.3,0-0.6-0.2-0.8c-0.2-0.2-0.4-0.3-0.7-0.3l-0.3-0.1l0.3-1.6l0.2,0
				c0.8,0.1,1.3,0.4,1.7,0.9c0.5,0.5,0.6,1.2,0.5,2c-0.1,0.8-0.5,1.3-1.1,1.7c-0.5,0.3-1.1,0.4-1.8,0.3l-0.4-0.1
				c-0.7-0.1-1.2-0.4-1.6-0.9c-0.2-0.2-0.3-0.4-0.4-0.7c-0.4,0.4-0.8,0.7-1.4,0.9c-0.3,0.1-0.7,0.1-1,0l-0.8-0.2
				c-0.8-0.1-1.4-0.5-1.8-1.2c-0.4-0.6-0.5-1.3-0.4-2c0.1-0.7,0.5-1.3,1.1-1.7c0.6-0.4,1.2-0.5,1.9-0.4l0.3,0l-0.2,1.6l-0.4,0
				c-0.3,0-0.5,0-0.7,0.2C17.4,230.8,17.2,231,17.2,231.3z"/>
		</g>
	</g>
	<g>
		<path class="st1" d="M34.2,181.8c5.6,2.5,12.3,0,14.8-5.7c0,0,0,0,0,0l0,0c0.3-0.7,0.5-1.4,0.7-2.1c0,0,0-0.1,0-0.1
			c0.5-2.5,0.2-5.1-0.9-7.3c0,0,0-0.1-0.1-0.1c-0.2-0.5-0.5-0.9-0.8-1.3c-0.2-0.3-0.5-0.7-0.7-1c-0.2-0.3-0.5-0.5-0.7-0.8
			c-0.9-0.9-2-1.6-3.2-2.2c-0.4-0.2-0.7-0.3-1.1-0.4c-0.4-0.1-0.8-0.2-1.3-0.3c-0.6-0.1-1.3-0.2-1.9-0.2c0,0,0,0-0.1,0c0,0,0,0,0,0
			c-0.6,0-1.2,0-1.8,0.1c-0.3,0-0.5,0.1-0.8,0.1c-0.9,0.2-1.8,0.5-2.6,0.9c0,0-0.1,0-0.1,0.1c-0.9,0.5-1.8,1.1-2.5,1.8
			c-0.4,0.4-0.8,0.8-1.1,1.2c-0.1,0.1-0.2,0.3-0.3,0.4c-0.4,0.6-0.8,1.2-1.1,1.9c0,0,0,0,0,0.1l0,0c0,0,0,0,0,0
			C26.1,172.7,28.6,179.3,34.2,181.8z"/>
		<g>
			<path class="st4" d="M43.7,166.6c0.9,0.4,1.5,1,1.8,1.7c0.2,0.6,0.2,1.3-0.1,2c-0.3,0.7-0.8,1.1-1.5,1.4c-0.7,0.2-1.4,0.2-2-0.1
				c-0.7-0.3-1.3-0.7-1.7-1.3c-0.3-0.3-0.7-1-1.3-2c-0.2-0.3-0.4-0.7-0.7-1.2l-0.3-0.5c-0.2-0.3-0.3-0.5-0.4-0.7
				c-0.1-0.1-0.1-0.1-0.1-0.1l-1.3,3l-1.5-0.7l2.2-4.8L38,164c0,0,0.2,0.2,0.4,0.6c0.1,0.2,0.2,0.4,0.3,0.6l0.4,0.6
				c0.2,0.4,0.5,1,1,1.7c0.4,0.8,0.9,1.4,1.3,1.8c0.3,0.4,0.7,0.6,1.1,0.8c0.3,0.1,0.6,0.2,0.9,0.1c0.3-0.1,0.5-0.3,0.7-0.6
				c0.2-0.4,0.1-0.8-0.3-1.2c-0.1-0.1-0.3-0.2-0.5-0.3l-0.4-0.2l0.7-1.5L43.7,166.6z"/>
			<path class="st4" d="M40.6,173.5c0.9,0.4,1.5,1,1.8,1.7c0.2,0.6,0.2,1.3-0.1,2c-0.3,0.7-0.8,1.1-1.5,1.4c-0.7,0.2-1.4,0.2-2-0.1
				c-0.7-0.3-1.2-0.7-1.7-1.3c-0.3-0.3-0.7-1-1.3-2c-0.2-0.3-0.4-0.7-0.7-1.2l-0.3-0.5c-0.2-0.3-0.3-0.5-0.4-0.7
				c-0.1-0.1-0.1-0.1-0.1-0.1l-1.3,3l-1.5-0.7l2.2-4.8l1.4,0.6c0,0,0.2,0.2,0.4,0.6c0.1,0.2,0.2,0.4,0.3,0.6l0.4,0.6
				c0.2,0.4,0.5,1,1,1.7c0.4,0.8,0.9,1.4,1.3,1.8c0.3,0.4,0.7,0.6,1.1,0.8c0.3,0.1,0.6,0.2,0.9,0.1c0.3-0.1,0.5-0.3,0.7-0.6
				c0.2-0.4,0.1-0.8-0.3-1.2c-0.1-0.1-0.3-0.2-0.5-0.3l-0.4-0.2l0.7-1.5L40.6,173.5z"/>
		</g>
	</g>
	<g>
		<path class="st0" d="M25.4,210.1c5.9,1.8,12.2-1.6,14-7.5c0,0,0,0,0,0l0,0c0.3-1.1,0.5-2.1,0.5-3.2c0,0,0-0.1,0-0.1
			c0-1.7-0.4-3.4-1.2-4.8c-0.1-0.2-0.2-0.4-0.3-0.6c-0.3-0.5-0.6-1-1-1.4c-0.3-0.3-0.5-0.6-0.8-0.9c-0.5-0.5-1.1-1-1.7-1.4
			c-0.9-0.6-1.9-1.1-3-1.4c-0.4-0.1-0.8-0.2-1.3-0.3c-0.7-0.1-1.3-0.2-2-0.2c0,0,0,0,0,0c-0.9,0-1.8,0.1-2.6,0.3
			c-0.9,0.2-1.8,0.6-2.6,1c-0.9,0.5-1.7,1.1-2.4,1.8c-0.1,0.1-0.1,0.1-0.2,0.1c-0.4,0.4-0.8,0.9-1.2,1.4c-0.1,0.1-0.2,0.2-0.2,0.3
			c0,0.1-0.1,0.1-0.1,0.2c-0.6,0.9-1,1.8-1.3,2.9l0,0c0,0,0,0,0,0C16.1,202.1,19.4,208.3,25.4,210.1z"/>
		<g>
			<path class="st4" d="M28.7,192.9l5.7,4.7l-0.5,1.6l-6.6-1.9l-0.3,1l-1.6-0.5l0.3-1l-2.2-0.7l0.5-1.6l2.2,0.7l0.8-2.8L28.7,192.9z
				 M27.9,195.7l3.2,0.9l-2.9-2.3L27.9,195.7z"/>
			<path class="st4" d="M29.9,203.4l0.3,0.1c0.3,0.1,0.5,0.1,0.7,0c0.2-0.1,0.4-0.3,0.4-0.5c0.1-0.3,0-0.5-0.1-0.7
				c-0.1-0.2-0.3-0.3-0.6-0.4l-2.1-0.6c0.2,0.5,0.3,0.9,0.1,1.3c-0.2,0.7-0.6,1.2-1.2,1.4c-0.5,0.2-1.1,0.2-1.9,0l-1.8-0.5l0,0
				c-0.7-0.2-1.1-0.6-1.4-1.2c-0.3-0.6-0.4-1.2-0.2-1.9c0.2-0.7,0.6-1.2,1.2-1.5c0.6-0.3,1.2-0.4,1.9-0.2l5.7,1.7
				c0.5,0.1,0.9,0.4,1.3,0.8c0.3,0.4,0.5,0.8,0.6,1.3c0,0.3,0,0.7-0.1,1c-0.2,0.7-0.6,1.2-1.3,1.5c-0.6,0.3-1.2,0.4-1.9,0.2
				l-0.2-0.1L29.9,203.4z M25,200.3c-0.3-0.1-0.5-0.1-0.7,0c-0.2,0.1-0.4,0.3-0.4,0.5c-0.1,0.3,0,0.5,0.1,0.7
				c0.1,0.2,0.3,0.3,0.6,0.4l1.9,0.6c0.3,0.1,0.6,0,0.8-0.1c0.1-0.1,0.2-0.2,0.3-0.4c0.1-0.3,0-0.5-0.1-0.7
				c-0.1-0.2-0.3-0.3-0.5-0.3L25,200.3z"/>
		</g>
	</g>
	<g>
		<path class="st0" d="M46.4,154.7c5.4,3.1,12.2,1.3,15.3-4.1c0,0,0,0,0,0l0,0c1-1.6,1.4-3.4,1.5-5.2c0,0,0-0.1,0-0.1
			c0-1.3-0.2-2.5-0.5-3.7c-0.1-0.3-0.2-0.5-0.3-0.8c-0.2-0.4-0.4-0.8-0.6-1.3c-0.4-0.8-0.9-1.5-1.5-2.2c-0.7-0.8-1.6-1.5-2.6-2.1
			c-0.3-0.2-0.7-0.4-1-0.5c-1.4-0.6-2.8-0.9-4.3-1c-0.8,0-1.6,0.1-2.4,0.2c-1,0.2-1.9,0.5-2.8,0.9c0,0-0.1,0-0.1,0
			c-0.6,0.3-1.2,0.6-1.7,1c-0.2,0.1-0.3,0.3-0.5,0.4c-0.1,0.1-0.3,0.2-0.4,0.4c0,0,0,0,0,0c-0.8,0.7-1.5,1.6-2.1,2.6l0,0
			c0,0,0,0,0,0C39.2,144.8,41.1,151.6,46.4,154.7z"/>
		<g>
			<path class="st4" d="M54.2,138.6l4.4,6l-0.8,1.4l-5.9-3.5l-0.5,0.9l-1.4-0.8l0.5-0.9l-2-1.2l0.8-1.4l2,1.2l1.5-2.5L54.2,138.6z
				 M52.7,141.1l2.9,1.7l-2.2-2.9L52.7,141.1z"/>
			<path class="st4" d="M54.2,148.8l-2-1.2c0.1,0.3,0.1,0.5,0.1,0.9c0,0.2-0.1,0.3-0.2,0.5c-0.4,0.6-0.9,1-1.5,1
				c-0.5,0-1.1-0.1-1.8-0.6l-2-1.2c-0.7-0.4-1.1-1-1.3-1.7c-0.2-0.7-0.1-1.3,0.3-2c0.4-0.6,0.9-1,1.6-1.2c0.7-0.1,1.3,0,1.9,0.3
				l0.2,0.1l-0.7,1.4l-0.3-0.2c-0.4-0.2-0.7-0.2-1,0c-0.1,0.1-0.2,0.1-0.2,0.2c-0.3,0.6-0.2,1.1,0.4,1.4l2.3,1.4
				c0.3,0.2,0.6,0.2,0.9,0.1c0.1,0,0.3-0.2,0.4-0.3c0.1-0.3,0.2-0.5,0-0.7c-0.1-0.2-0.3-0.4-0.4-0.5l-0.3-0.2l0.8-1.4l5.1,3
				l-2.5,4.2l-1.4-0.8L54.2,148.8z"/>
		</g>
	</g>
	<g>
		<path class="st0" d="M97.2,92.1c-0.5-1-1.2-1.9-2-2.7c-0.8-0.8-1.8-1.5-2.7-1.9c-1.6-0.8-3.4-1.2-5.2-1.2c0,0-0.1,0-0.1,0
			c-1,0-2,0.2-3,0.5c-0.7,0.2-1.3,0.5-2,0.8c0,0,0,0,0,0c-0.2,0.1-0.5,0.3-0.7,0.4c-0.1,0-0.2,0.1-0.2,0.1c-0.1,0.1-0.2,0.1-0.3,0.2
			c-0.5,0.4-1,0.8-1.5,1.3l0,0c0,0,0,0,0,0c-4.3,4.5-4.2,11.5,0.3,15.8c4.5,4.3,11.5,4.2,15.8-0.3c0,0,0,0,0,0l0,0
			c0.5-0.5,0.9-1.1,1.3-1.6c0-0.1,0.1-0.1,0.1-0.2c0.8-1.2,1.2-2.5,1.5-3.8c0.2-0.8,0.2-1.6,0.2-2.4C98.5,95.5,98,93.7,97.2,92.1z"
			/>
		<g>
			<path class="st4" d="M90.7,91.4l2.9,6.8l-1.1,1.2l-4.9-4.7l-0.7,0.8l-1.2-1.1l0.7-0.8l-1.7-1.6l1.1-1.2l1.7,1.6l2-2.1L90.7,91.4z
				 M88.7,93.5l2.4,2.3l-1.5-3.3L88.7,93.5z"/>
			<path class="st4" d="M86,96.3l2.9,6.8l-1.1,1.2l-4.9-4.7l-0.7,0.8l-1.2-1.1l0.7-0.8L80,96.8l1.1-1.2l1.7,1.6l2-2.1L86,96.3z
				 M84,98.4l2.4,2.3l-1.5-3.3L84,98.4z"/>
		</g>
	</g>
	<g>
		<path class="st0" d="M143.4,56c-0.2-0.6-0.4-1.2-0.7-1.7c-0.2-0.3-0.4-0.7-0.6-1s-0.4-0.6-0.7-0.9c-2.9-3.5-7.5-4.9-11.8-3.7
			c0,0,0,0,0,0c-0.7,0.2-1.4,0.5-2,0.8c-0.2,0.1-0.4,0.2-0.6,0.3c-0.1,0.1-0.3,0.2-0.4,0.2l0,0c0,0,0,0,0,0
			c-5.2,3.4-6.6,10.3-3.2,15.5c3.4,5.2,10.3,6.6,15.5,3.2c0,0,0,0,0,0l0,0c2.5-1.6,4.1-4.1,4.7-6.7c0.2-0.8,0.3-1.7,0.3-2.5
			C144,58.4,143.8,57.2,143.4,56z"/>
		<g>
			<path class="st4" d="M137.7,54.7l1.4,7.3l-1.4,0.9l-3.8-5.7l-0.9,0.6l-0.9-1.4L133,56l-1.3-1.9l1.4-0.9l1.3,1.9l2.4-1.6
				L137.7,54.7z M135.3,56.4l1.9,2.8l-0.8-3.6L135.3,56.4z"/>
			<path class="st4" d="M128.6,58c-0.6,0.4-0.7,0.9-0.4,1.5l0.4,0.5c0.6,0.9,1.4,1,2.4,0.4l0.8,1.2c-0.5,0.4-0.8,0.8-0.9,1.2
				c-0.1,0.4,0.1,0.9,0.4,1.3l0.1,0.2c0.4,0.6,0.9,0.7,1.4,0.3c0.3-0.2,0.4-0.4,0.4-0.8c0-0.2-0.1-0.5-0.3-0.7l-0.2-0.2l1.3-0.9
				l0.1,0.2c0.4,0.6,0.6,1.3,0.6,1.9c-0.1,0.7-0.4,1.3-1.1,1.8c-0.6,0.4-1.3,0.6-2,0.4c-0.6-0.1-1.1-0.5-1.5-1.1l-0.3-0.4
				c-0.4-0.6-0.5-1.2-0.5-1.8c0-0.3,0.1-0.5,0.2-0.8c-0.6,0.1-1.1-0.1-1.6-0.4c-0.3-0.2-0.5-0.4-0.7-0.7l-0.5-0.7
				c-0.4-0.7-0.6-1.4-0.4-2.1c0.2-0.7,0.6-1.3,1.2-1.7c0.6-0.4,1.3-0.5,2-0.4c0.7,0.1,1.3,0.5,1.7,1.1l0.2,0.2l-1.2,1l-0.2-0.3
				c-0.2-0.2-0.4-0.3-0.6-0.4C129.1,57.8,128.8,57.8,128.6,58z"/>
		</g>
	</g>
	<g>
		<path class="st0" d="M196.7,31.4c-0.1-0.7-0.3-1.5-0.6-2.2c-0.3-0.7-0.6-1.4-1-2c-0.4-0.6-0.8-1.2-1.3-1.8c-0.3-0.3-0.6-0.6-1-0.9
			c-0.8-0.6-1.6-1.2-2.5-1.6c-1.2-0.5-2.4-0.9-3.7-1c-1.2-0.1-2.5,0-3.7,0.3c-0.1,0-0.2,0.1-0.3,0.1c-0.3,0.1-0.6,0.2-0.8,0.3v0
			c0,0,0,0,0,0c-5.8,2.1-8.8,8.5-6.7,14.3c2.1,5.8,8.5,8.8,14.3,6.7c0,0,0,0,0,0v0c2.5-0.9,4.4-2.6,5.7-4.7c0.1-0.1,0.1-0.2,0.2-0.3
			c0.9-1.5,1.4-3.2,1.5-4.9c0-0.4,0-0.8,0-1.2C196.8,32.1,196.7,31.8,196.7,31.4z"/>
		<g>
			<path class="st4" d="M192,29l-0.4,7.4l-1.6,0.6l-2.4-6.4l-1,0.4l-0.6-1.5l1-0.4l-0.8-2.2l1.6-0.6l0.8,2.2l2.7-1L192,29z
				 M189.3,30l1.2,3.2l0.1-3.6L189.3,30z"/>
			<path class="st4" d="M186.8,34.9c0.4,1,0.4,1.8,0,2.5c-0.3,0.6-0.8,1.1-1.5,1.3c-0.7,0.3-1.4,0.2-2-0.1c-0.7-0.3-1.1-0.8-1.4-1.5
				c-0.3-0.7-0.3-1.4-0.3-2.2c0-0.4,0.2-1.2,0.5-2.3c0.1-0.3,0.2-0.8,0.3-1.4l0.1-0.5c0.1-0.3,0.1-0.6,0.2-0.8c0-0.1,0-0.2,0-0.2
				l-3,1.1l-0.6-1.5l4.9-1.8l0.5,1.4c0,0,0,0.3-0.1,0.7c0,0.2-0.1,0.4-0.2,0.6l-0.2,0.7c-0.1,0.4-0.3,1.1-0.5,1.9
				c-0.2,0.8-0.4,1.6-0.4,2.2c0,0.5,0,0.9,0.2,1.3c0.1,0.3,0.3,0.5,0.6,0.7c0.3,0.2,0.6,0.2,0.9,0.1c0.4-0.2,0.6-0.5,0.6-1.1
				c0-0.2,0-0.4-0.1-0.6l-0.1-0.4l1.5-0.6L186.8,34.9z"/>
		</g>
	</g>
	<g>
		<path class="st0" d="M254.2,17.2c-0.2-0.9-0.5-1.8-0.9-2.6c-0.1-0.3-0.3-0.6-0.5-0.8c-0.3-0.4-0.6-0.9-0.9-1.2
			c-1-1.2-2.2-2.1-3.5-2.8c-0.1,0-0.1,0-0.2-0.1c-0.6-0.3-1.2-0.5-1.8-0.7c-1.4-0.4-2.9-0.6-4.4-0.4c-6.1,0.7-10.6,6.3-9.8,12.4
			c0.7,6.1,6.3,10.6,12.4,9.8c0,0,0,0,0,0v0c3.7-0.4,6.8-2.6,8.5-5.6c0.4-0.7,0.8-1.5,1-2.3c0.1-0.3,0.2-0.7,0.3-1.1
			c0.1-0.7,0.2-1.5,0.2-2.2c0-0.4,0-0.8-0.1-1.1C254.3,17.9,254.3,17.5,254.2,17.2z"/>
		<g>
			<path class="st4" d="M249.2,17.3l-2.1,7.2l-1.6,0.2l-0.8-6.8l-1.1,0.1l-0.2-1.6l1.1-0.1l-0.3-2.3l1.6-0.2l0.3,2.3l2.9-0.4
				L249.2,17.3z M246.3,17.7l0.4,3.3l0.9-3.5L246.3,17.7z"/>
			<path class="st4" d="M240.4,14.4l1,8.3l1.4-0.2l0.1,1.1c-0.4,0.1-0.7,0.3-1.1,0.6c-0.3,0.3-0.5,0.6-0.7,1l-1.1,0.1l-1.3-10.7
				L240.4,14.4z"/>
		</g>
	</g>
	<g>
		<path class="st0" d="M303.7,8.4c-1.5-0.2-3,0-4.4,0.4c0,0-0.1,0-0.1,0c-0.4,0.1-0.7,0.2-1.1,0.4c-1.2,0.5-2.3,1.2-3.3,2.1
			c0,0-0.1,0.1-0.1,0.1c-0.6,0.6-1.1,1.3-1.6,2c-0.7,1.1-1.3,2.3-1.5,3.7c-0.1,0.4-0.1,0.7-0.2,1.1c0,0.4-0.1,0.8-0.1,1.1
			c0,0.8,0.1,1.5,0.2,2.2c0.1,0.4,0.2,0.7,0.3,1.1c1.2,4.2,4.9,7.4,9.5,8v0c0,0,0,0,0,0c6.1,0.7,11.7-3.7,12.4-9.8
			C314.2,14.6,309.8,9.1,303.7,8.4z"/>
		<g>
			<path class="st4" d="M309.2,18.9l-3.7,6.4l-1.6-0.2l0.8-6.8l-1.1-0.1l0.2-1.6l1.1,0.1l0.3-2.3l1.6,0.2l-0.3,2.3l2.9,0.4
				L309.2,18.9z M306.3,18.5l-0.4,3.3l1.8-3.2L306.3,18.5z"/>
			<path class="st4" d="M297.3,15.9c0.1-0.7,0.4-1.3,1-1.7c0.6-0.4,1.2-0.6,1.9-0.5c0.7,0.1,1.3,0.4,1.8,1c0.4,0.6,0.6,1.2,0.5,1.9
				l-0.7,5.8c-0.1,0.7-0.4,1.3-1,1.7c-0.6,0.4-1.2,0.6-1.9,0.5c-0.7-0.1-1.3-0.4-1.7-1c-0.4-0.6-0.6-1.2-0.5-1.9L297.3,15.9z
				 M298.3,22c0,0.3,0,0.5,0.2,0.7c0.2,0.2,0.4,0.3,0.6,0.4c0.3,0,0.5,0,0.7-0.2c0.2-0.2,0.3-0.4,0.4-0.6l0.7-5.9
				c0-0.3,0-0.5-0.2-0.7c-0.2-0.2-0.4-0.3-0.6-0.4c-0.3,0-0.5,0-0.7,0.2c-0.2,0.2-0.3,0.4-0.4,0.6L298.3,22z"/>
		</g>
	</g>
	<g>
		<path class="st1" d="M169.3,41.9c-0.2-0.7-0.4-1.4-0.8-2.1c-0.2-0.3-0.4-0.7-0.6-1c-0.9-1.5-2.2-2.7-3.6-3.6
			c-0.4-0.2-0.8-0.5-1.2-0.7c0,0,0,0,0,0c-0.1,0-0.1-0.1-0.2-0.1c-1.2-0.5-2.6-0.9-4-0.9c0,0,0,0,0,0c-0.9,0-1.7,0-2.6,0.2
			c-0.9,0.2-1.9,0.5-2.8,0.9c-5.6,2.7-7.9,9.4-5.1,15c2.7,5.6,9.4,7.9,15,5.1c0,0,0,0,0,0v0c3.4-1.7,5.6-4.8,6.1-8.3
			c0-0.1,0-0.2,0.1-0.3C169.8,44.8,169.7,43.3,169.3,41.9z"/>
		<g>
			<path class="st4" d="M164.3,44.7c0.5,0.9,0.6,1.7,0.3,2.5c-0.2,0.6-0.7,1.1-1.4,1.5c-0.6,0.3-1.3,0.4-2,0.1
				c-0.7-0.2-1.2-0.7-1.5-1.3c-0.3-0.7-0.5-1.4-0.5-2.1c0-0.4,0.1-1.2,0.3-2.3c0-0.3,0.1-0.8,0.2-1.4l0.1-0.5c0-0.3,0.1-0.6,0.1-0.8
				c0-0.1,0-0.2,0-0.2l-2.9,1.5l-0.7-1.4l4.7-2.4l0.7,1.3c0,0,0,0.3-0.1,0.7c0,0.2-0.1,0.4-0.1,0.7l-0.1,0.7c-0.1,0.4-0.2,1.1-0.3,2
				c-0.1,0.9-0.2,1.6-0.2,2.2c0,0.5,0.1,0.9,0.3,1.3c0.1,0.3,0.4,0.5,0.6,0.6c0.3,0.1,0.6,0.1,0.9,0c0.4-0.2,0.6-0.6,0.5-1.1
				c0-0.2-0.1-0.4-0.2-0.6l-0.2-0.4l1.5-0.7L164.3,44.7z"/>
			<path class="st4" d="M153.7,41.3l3.7,7.4l1.3-0.6l0.5,1c-0.3,0.2-0.6,0.5-0.8,0.9c-0.2,0.4-0.3,0.8-0.3,1.2l-1,0.5l-4.8-9.7
				L153.7,41.3z"/>
		</g>
	</g>
	<g>
		<path class="st1" d="M223.6,18.8c-0.6-0.9-1.2-1.8-2-2.5c0,0,0,0-0.1-0.1c-1-0.9-2.2-1.7-3.6-2.2c0,0,0,0,0,0
			c-0.6-0.2-1.1-0.4-1.7-0.5c-0.3-0.1-0.6-0.1-1-0.2c-0.5-0.1-1-0.1-1.6-0.1c-0.1,0-0.2,0-0.4,0c-0.6,0-1.3,0.1-1.9,0.3l0,0
			c0,0,0,0,0,0c-6,1.4-9.8,7.4-8.3,13.5c1.4,6,7.4,9.8,13.5,8.3c0,0,0,0,0,0v0c2.2-0.5,4.2-1.7,5.6-3.3c0,0,0,0,0,0
			c0.9-0.9,1.6-2,2.1-3.2c0.5-1.1,0.8-2.3,0.9-3.6c0-0.4,0-0.7,0-1.1c0-0.7-0.1-1.5-0.3-2.2C224.5,20.8,224.1,19.8,223.6,18.8z"/>
		<g>
			<path class="st4" d="M220.3,25.9c0.2,1,0.2,1.8-0.3,2.5c-0.4,0.6-0.9,1-1.7,1.2c-0.7,0.2-1.4,0.1-2-0.3c-0.6-0.4-1-0.9-1.2-1.6
				c-0.2-0.7-0.2-1.4,0-2.2c0.1-0.4,0.3-1.1,0.8-2.2c0.1-0.3,0.3-0.7,0.5-1.3l0.2-0.5c0.1-0.3,0.2-0.6,0.3-0.8c0-0.1,0-0.1,0-0.2
				l-3.2,0.8l-0.4-1.5l5.1-1.3l0.4,1.4c0,0-0.1,0.3-0.2,0.7c-0.1,0.2-0.1,0.4-0.2,0.6l-0.3,0.7c-0.2,0.4-0.4,1-0.8,1.9
				c-0.3,0.8-0.5,1.5-0.6,2.1c-0.1,0.5-0.1,0.9,0,1.3c0.1,0.3,0.2,0.6,0.5,0.7c0.3,0.2,0.5,0.2,0.9,0.2c0.4-0.1,0.7-0.4,0.8-1
				c0-0.2,0-0.4-0.1-0.6l-0.1-0.4l1.6-0.4L220.3,25.9z"/>
			<path class="st4" d="M207.4,23.6c-0.2-0.7-0.1-1.3,0.3-2c0.4-0.6,0.9-1,1.6-1.2c0.7-0.2,1.4-0.1,2,0.3c0.6,0.4,1,0.9,1.2,1.6
				l1.4,5.7c0.2,0.7,0.1,1.4-0.3,2c-0.4,0.6-0.9,1-1.6,1.2c-0.7,0.2-1.4,0.1-2-0.3c-0.6-0.4-1-0.9-1.2-1.6L207.4,23.6z M210.5,29
				c0.1,0.3,0.2,0.4,0.4,0.6c0.2,0.1,0.5,0.2,0.7,0.1c0.3-0.1,0.5-0.2,0.6-0.4c0.1-0.2,0.2-0.5,0.1-0.7l-1.4-5.7
				c-0.1-0.3-0.2-0.4-0.4-0.6c-0.2-0.1-0.5-0.2-0.7-0.1c-0.3,0.1-0.5,0.2-0.6,0.4c-0.1,0.2-0.2,0.5-0.1,0.7L210.5,29z"/>
		</g>
	</g>
	<g>
		<path class="st1" d="M323.2,32.2C323.3,32.2,323.3,32.3,323.2,32.2c1.5,1.6,3.4,2.8,5.7,3.3v0c0,0,0,0,0,0c6,1.4,12-2.3,13.5-8.3
			c1.4-6-2.3-12-8.3-13.5c0,0,0,0,0,0l0,0c-0.6-0.1-1.3-0.2-1.9-0.3c-0.1,0-0.2,0-0.4,0c-0.5,0-1.1,0-1.6,0.1c-0.3,0-0.7,0.1-1,0.2
			c-0.6,0.1-1.2,0.3-1.7,0.5c0,0,0,0,0,0c-0.2,0.1-0.5,0.2-0.7,0.3c-0.1,0-0.2,0.1-0.3,0.1c-0.9,0.5-1.8,1-2.5,1.7
			c0,0-0.1,0.1-0.1,0.1c-0.3,0.3-0.6,0.6-0.9,0.9c-0.3,0.3-0.5,0.7-0.8,1c-0.3,0.5-0.6,1-0.9,1.5c-0.3,0.7-0.6,1.4-0.7,2.1
			c-0.2,0.8-0.3,1.5-0.3,2.2c0,0.4,0,0.7,0,1.1c0.1,0.9,0.2,1.7,0.5,2.5C321.3,29.5,322.1,31,323.2,32.2z"/>
		<g>
			<path class="st4" d="M337.3,20.5l-1.9,8.1l1.4,0.3l-0.3,1.1c-0.4,0-0.8,0-1.2,0.2c-0.4,0.2-0.7,0.4-1,0.7l-1.1-0.3l2.5-10.5
				L337.3,20.5z"/>
			<path class="st4" d="M327,20.6c0.2-0.7,0.6-1.2,1.2-1.6c0.6-0.4,1.3-0.5,2-0.3l0.1,0c0.7,0.2,1.3,0.6,1.6,1.2
				c0.4,0.6,0.5,1.3,0.3,1.9l-0.2,1c-0.2,0.6-0.5,1.2-1.1,1.5c-0.2,0.2-0.5,0.3-0.8,0.4c0.4,0.3,0.6,0.8,0.7,1.3
				c0.1,0.3,0,0.6-0.1,1l-0.1,0.6c-0.2,0.7-0.5,1.2-1,1.5c-0.6,0.4-1.2,0.5-2,0.3l-0.1,0c-0.8-0.2-1.3-0.6-1.6-1.2
				c-0.3-0.6-0.4-1.2-0.2-1.8l0.1-0.6c0.2-0.7,0.5-1.1,1-1.5c0.2-0.1,0.5-0.3,0.7-0.3c-0.4-0.4-0.7-0.9-0.8-1.5
				c-0.1-0.3-0.1-0.7,0-1L327,20.6z M327.3,26.3c-0.2,0.7,0,1.2,0.4,1.5c0.1,0.1,0.2,0.1,0.3,0.2c0.3,0.1,0.5,0,0.7-0.1
				c0.2-0.1,0.3-0.2,0.4-0.4c0.1-0.2,0.2-0.4,0.2-0.7c0.1-0.5,0.1-0.8,0-1c-0.1-0.3-0.4-0.5-0.7-0.6c-0.4-0.1-0.7,0-0.9,0.2
				C327.5,25.6,327.4,25.9,327.3,26.3z M328.4,21.7c-0.1,0.6-0.1,1.1,0.1,1.4c0.1,0.1,0.3,0.2,0.5,0.3c0.4,0.1,0.8,0,1-0.3
				c0.1-0.2,0.3-0.5,0.3-0.8l0.1-0.5c0.1-0.3,0-0.7-0.1-0.9c-0.1-0.2-0.3-0.4-0.6-0.4c-0.4-0.1-0.8,0.1-1.1,0.4
				c-0.1,0.1-0.2,0.3-0.2,0.5L328.4,21.7z"/>
		</g>
	</g>
	<g>
		<path class="st0" d="M348.7,33.8c0.3,4.3,3,8.3,7.3,9.8l0,0c0,0,0,0,0,0c5.8,2.1,12.2-0.9,14.3-6.7c2.1-5.8-0.9-12.2-6.7-14.3
			c0,0,0,0,0,0v0c-0.3-0.1-0.6-0.2-0.8-0.3c-0.1,0-0.2-0.1-0.3-0.1c-1.2-0.3-2.4-0.4-3.6-0.3c-1.3,0.1-2.6,0.4-3.8,1
			c0,0-0.1,0-0.1,0.1c-1.9,0.9-3.6,2.4-4.7,4.2c-0.4,0.6-0.7,1.3-1,2c-0.3,0.7-0.4,1.5-0.6,2.2c-0.1,0.4-0.1,0.7-0.1,1.1
			C348.6,33,348.6,33.4,348.7,33.8z"/>
		<g>
			<path class="st4" d="M364.6,30.7c-0.7-0.3-1.2-0.1-1.4,0.6l-0.2,0.6c-0.4,1,0,1.8,1.1,2.2l-0.5,1.3c-0.6-0.2-1.1-0.2-1.5,0
				c-0.4,0.2-0.7,0.6-0.9,1.1l-0.1,0.2c-0.3,0.7-0.1,1.1,0.5,1.3c0.3,0.1,0.6,0.1,0.9-0.1c0.2-0.1,0.3-0.4,0.5-0.7L363,37l1.5,0.6
				l-0.1,0.2c-0.3,0.7-0.7,1.2-1.2,1.5c-0.6,0.4-1.3,0.4-2.1,0.1c-0.7-0.3-1.2-0.7-1.5-1.4c-0.2-0.6-0.2-1.2,0-1.9l0.2-0.4
				c0.2-0.6,0.6-1.1,1.2-1.4c0.2-0.1,0.5-0.2,0.8-0.3c-0.4-0.4-0.6-0.9-0.6-1.6c0-0.3,0-0.7,0.2-1l0.3-0.8c0.3-0.7,0.8-1.3,1.5-1.5
				c0.7-0.3,1.4-0.3,2.1,0c0.7,0.3,1.2,0.7,1.5,1.4c0.3,0.7,0.3,1.3,0.1,2l-0.1,0.2l-1.5-0.5l0.1-0.4c0.1-0.3,0.1-0.5,0-0.7
				C365.1,31,364.9,30.8,364.6,30.7z"/>
			<path class="st4" d="M355.1,37.1c-0.7-0.3-1.1-0.7-1.4-1.4c-0.3-0.6-0.3-1.3,0-1.9l2.1-5.5c0.3-0.7,0.7-1.2,1.3-1.4
				c0.6-0.3,1.3-0.3,1.9-0.1c0.7,0.3,1.2,0.7,1.4,1.4c0.3,0.6,0.3,1.3,0,1.9l-0.1,0.2l-1.6-0.6l0.1-0.2c0.1-0.2,0.1-0.5,0-0.7
				c-0.1-0.2-0.2-0.4-0.5-0.5c-0.2-0.1-0.5-0.1-0.7,0c-0.2,0.1-0.3,0.3-0.4,0.5l-0.8,2c0.5-0.2,0.9-0.2,1.4,0
				c0.7,0.3,1.1,0.7,1.3,1.3c0.1,0.5,0.1,1.1-0.2,1.9l-0.7,1.7l0,0c-0.2,0.5-0.5,0.8-0.9,1.1c-0.4,0.3-0.8,0.4-1.3,0.4
				C355.7,37.3,355.4,37.2,355.1,37.1z M355.2,34.3c-0.1,0.2-0.1,0.5,0,0.7c0.1,0.2,0.2,0.4,0.5,0.5c0.2,0.1,0.5,0.1,0.7,0
				c0.2-0.1,0.3-0.3,0.4-0.5l0.7-1.9c0.1-0.3,0.1-0.6,0-0.9c-0.1-0.1-0.2-0.2-0.4-0.3c-0.4-0.2-0.7,0-1,0.3
				c-0.1,0.1-0.1,0.2-0.1,0.3L355.2,34.3z"/>
		</g>
	</g>
	<g>
		<path class="st3" d="M118.1,71c-0.2-0.3-0.4-0.6-0.7-0.9c-0.2-0.3-0.5-0.6-0.8-0.8c-0.4-0.4-0.9-0.8-1.4-1.1
			c-0.3-0.2-0.6-0.4-0.9-0.6c-0.7-0.4-1.4-0.7-2.1-0.9c-1.1-0.4-2.3-0.6-3.5-0.6c-0.5,0-1,0.1-1.6,0.1c-0.5,0.1-1.1,0.2-1.6,0.4
			c-1,0.3-2,0.8-2.9,1.4c0,0-0.1,0-0.1,0.1c-0.3,0.2-0.6,0.4-0.9,0.7c-4.7,4-5.4,11-1.4,15.8s11,5.4,15.8,1.4c0,0,0,0,0,0l0,0
			c0.5-0.4,0.9-0.9,1.3-1.3c0.1-0.2,0.3-0.3,0.4-0.5c1.5-2,2.3-4.4,2.3-6.8c0,0,0,0,0,0C120,75,119.4,72.9,118.1,71z"/>
		<g>
			<path class="st4" d="M109.6,79.8l0.2,0.2c0.2,0.2,0.4,0.3,0.6,0.4c0.2,0,0.4,0,0.6-0.2c0.2-0.2,0.3-0.4,0.3-0.6
				c0-0.2-0.1-0.4-0.3-0.6l-1.4-1.7c-0.1,0.5-0.3,0.9-0.6,1.2c-0.6,0.5-1.1,0.6-1.7,0.5c-0.5-0.1-1-0.5-1.5-1.1l-1.2-1.4l0,0
				c-0.4-0.6-0.6-1.2-0.5-1.8c0.1-0.7,0.4-1.2,0.9-1.6c0.6-0.5,1.2-0.7,1.9-0.6c0.7,0.1,1.2,0.4,1.7,0.9l3.8,4.5
				c0.3,0.4,0.5,0.9,0.6,1.3c0.1,0.5,0,1-0.2,1.4c-0.1,0.3-0.4,0.6-0.6,0.8c-0.6,0.5-1.2,0.7-1.9,0.6c-0.7-0.1-1.2-0.4-1.7-0.9
				l-0.1-0.2L109.6,79.8z M107.3,74.5c-0.2-0.2-0.4-0.3-0.6-0.4c-0.2-0.1-0.5,0-0.7,0.2c-0.2,0.2-0.3,0.4-0.3,0.6
				c0,0.2,0.1,0.4,0.3,0.6l1.3,1.5c0.2,0.2,0.5,0.4,0.8,0.4c0.1,0,0.3-0.1,0.5-0.2c0.2-0.2,0.3-0.4,0.3-0.7c0-0.2-0.1-0.4-0.3-0.6
				L107.3,74.5z"/>
		</g>
	</g>
	<g>
		<path class="st3" d="M75.9,112c-0.3-0.3-0.6-0.5-0.9-0.7c-2.2-1.6-4.7-2.3-7.2-2.2c-0.5,0-1.1,0.1-1.6,0.2
			c-0.5,0.1-1.1,0.2-1.6,0.4c-0.5,0.2-1,0.4-1.5,0.7c-0.5,0.2-0.9,0.5-1.3,0.8c-0.6,0.4-1.1,0.9-1.6,1.5c0,0,0,0,0,0
			c-0.1,0.1-0.2,0.2-0.3,0.4c-0.1,0.2-0.3,0.3-0.4,0.5l0,0c0,0,0,0,0,0c-3.7,4.9-2.7,12,2.3,15.7c4.9,3.7,12,2.7,15.7-2.3
			c0,0,0,0,0,0l0,0c1.6-2.2,2.3-4.7,2.2-7.2c0,0,0,0,0,0C79.4,116.9,78.2,114.1,75.9,112z"/>
		<g>
			<path class="st4" d="M70.8,125l-1.3-0.9l-6.2-7.1l0.9-1.3l6.2,7.1l1.9-2.7l1.3,0.9L70.8,125z"/>
		</g>
	</g>
	<g>
		<path class="st1" d="M18.9,298.6c6.2-0.4,10.9-5.7,10.5-11.8c0,0,0,0,0,0h0c-0.2-4-2.6-7.4-5.9-9.2c-1.8-0.9-3.8-1.4-5.9-1.3
			c-0.7,0-1.4,0.2-2,0.3c-0.2,0-0.4,0.1-0.6,0.2c-0.9,0.3-1.7,0.6-2.5,1.1c-0.2,0.1-0.5,0.3-0.7,0.4c-0.4,0.3-0.8,0.6-1.2,1
			c-0.4,0.3-0.7,0.7-1,1.1c-0.4,0.4-0.7,0.9-1,1.4c-0.1,0.1-0.2,0.3-0.2,0.4c-0.3,0.5-0.5,1-0.7,1.6c0,0,0,0.1,0,0.1
			c-0.2,0.6-0.4,1.2-0.5,1.8c-0.1,0.3-0.1,0.6-0.1,0.9c0,0.1,0,0.3,0,0.4c0,0.4,0,0.8,0,1.1C7.5,294.3,12.8,299,18.9,298.6z"/>
		<g>
			<path class="st4" d="M20.4,281.9c1,0,1.8,0.2,2.4,0.7c0.5,0.5,0.8,1.1,0.8,1.9c0,0.7-0.2,1.4-0.7,1.9c-0.5,0.5-1.1,0.8-1.8,0.9
				c-0.7,0-1.5-0.1-2.1-0.4c-0.4-0.2-1.1-0.6-2-1.2c-0.3-0.2-0.7-0.4-1.2-0.8l-0.5-0.3c-0.3-0.2-0.5-0.3-0.7-0.4
				c-0.1,0-0.1-0.1-0.2-0.1l0.2,3.2l-1.6,0.1l-0.2-5.3l1.5-0.1c0,0,0.2,0.1,0.6,0.3c0.2,0.1,0.4,0.2,0.6,0.4l0.6,0.4
				c0.4,0.2,0.9,0.6,1.7,1.1c0.7,0.5,1.4,0.8,2,1.1c0.5,0.2,0.9,0.3,1.3,0.2c0.3,0,0.6-0.1,0.8-0.3c0.2-0.2,0.3-0.5,0.3-0.8
				c0-0.5-0.3-0.8-0.8-0.9c-0.2-0.1-0.4-0.1-0.6-0.1l-0.4,0l-0.1-1.6L20.4,281.9z"/>
			<path class="st4" d="M16.9,288.8l7,2.6l0.1,1.7l-6.8,0.3l0.1,1.1l-1.6,0.1l-0.1-1.1l-2.3,0.1l-0.1-1.7l2.3-0.1l-0.1-2.9
				L16.9,288.8z M17,291.7l3.4-0.2l-3.4-1.2L17,291.7z"/>
		</g>
	</g>
	<g>
		<path class="st3" d="M61.8,394.5L61.8,394.5c-2.1-3.7-6-5.7-10-5.6c0,0,0,0,0,0c-0.7,0-1.4,0.1-2.2,0.3c-1.1,0.2-2.1,0.7-3.1,1.2
			c-0.7,0.4-1.3,0.8-1.8,1.3c-0.5,0.5-1,1-1.4,1.5c-0.6,0.7-1,1.5-1.4,2.4c-0.7,1.5-1,3.2-1,4.8c0,0.1,0,0.2,0,0.2
			c0.1,1,0.2,2,0.6,3c0.2,0.5,0.4,1.1,0.7,1.6c0.1,0.2,0.2,0.3,0.2,0.5l0,0c0,0,0,0,0,0c3.1,5.3,10,7.2,15.3,4.1
			S64.9,399.9,61.8,394.5C61.8,394.5,61.8,394.5,61.8,394.5z"/>
		<path class="st4" d="M56.6,397.3c0.4,0.6,0.4,1.3,0.2,1.9c-0.2,0.6-0.6,1.2-1.2,1.5l-5.1,3c-0.6,0.4-1.3,0.5-1.9,0.3
			c-0.7-0.2-1.2-0.5-1.6-1.2c-0.4-0.6-0.5-1.3-0.3-1.9c0.2-0.6,0.6-1.2,1.2-1.5l0.2-0.1l0.9,1.5l-0.2,0.1c-0.2,0.1-0.4,0.3-0.5,0.5
			c-0.1,0.2-0.1,0.4,0.1,0.7c0.1,0.2,0.3,0.4,0.5,0.4c0.2,0,0.5,0,0.7-0.2l1.9-1.1c-0.5-0.2-0.8-0.4-1.1-0.8
			c-0.4-0.6-0.4-1.2-0.2-1.8c0.2-0.5,0.7-0.9,1.3-1.3l1.6-0.9l0,0c0.4-0.2,0.9-0.3,1.4-0.3c0.5,0,0.9,0.2,1.3,0.5
			C56.2,396.8,56.4,397,56.6,397.3z M54.8,399.4c0.2-0.1,0.4-0.3,0.5-0.5c0.1-0.2,0.1-0.4-0.1-0.7c-0.1-0.2-0.3-0.4-0.5-0.4
			c-0.2,0-0.5,0-0.7,0.2l-1.7,1c-0.3,0.2-0.4,0.4-0.5,0.7c0,0.1,0,0.3,0.1,0.5c0.2,0.4,0.5,0.5,1,0.3c0.1,0,0.2-0.1,0.3-0.1
			L54.8,399.4z"/>
	</g>
	<g>
		<path class="st1" d="M189.5,501.6C189.5,501.6,189.5,501.6,189.5,501.6L189.5,501.6c-2-0.7-4-0.8-5.9-0.5
			c-0.4,0.1-0.8,0.2-1.2,0.3c-0.4,0.1-0.8,0.3-1.1,0.4c-0.1,0-0.2,0.1-0.3,0.1c0,0-0.1,0-0.1,0.1c-0.8,0.4-1.5,0.9-2.2,1.4
			c-1.2,1-2.3,2.3-3,3.8c-0.2,0.3-0.3,0.7-0.4,1.1c-0.3,0.7-0.4,1.5-0.6,2.2c-0.1,0.4-0.1,0.7-0.1,1.1c-0.1,1.3,0.1,2.5,0.5,3.7
			c0.3,0.8,0.6,1.7,1,2.4c0.1,0.1,0.2,0.3,0.2,0.4c1.3,2,3.2,3.7,5.6,4.6v0c0,0,0,0,0,0c5.8,2.1,12.2-0.9,14.3-6.7
			C198.3,510.1,195.3,503.7,189.5,501.6z"/>
		<g>
			<path class="st4" d="M180.9,507.6c0.3-1,0.9-1.6,1.6-1.9c0.6-0.3,1.3-0.3,2,0c0.7,0.2,1.2,0.7,1.5,1.4c0.3,0.7,0.3,1.3,0.1,2
				c-0.3,0.7-0.6,1.3-1.2,1.8c-0.3,0.3-0.9,0.8-1.9,1.4c-0.3,0.2-0.6,0.5-1.2,0.8l-0.4,0.3c-0.3,0.2-0.5,0.4-0.6,0.5
				c-0.1,0.1-0.1,0.1-0.1,0.1l3.1,1.1l-0.5,1.5l-5-1.8l0.5-1.4c0,0,0.2-0.2,0.5-0.4c0.2-0.1,0.3-0.2,0.5-0.4l0.6-0.4
				c0.4-0.2,0.9-0.6,1.7-1.1c0.7-0.5,1.3-1,1.7-1.4c0.4-0.4,0.6-0.7,0.7-1.1c0.1-0.3,0.1-0.6,0-0.9c-0.1-0.3-0.3-0.5-0.6-0.6
				c-0.4-0.2-0.8,0-1.2,0.4c-0.1,0.1-0.2,0.3-0.3,0.6l-0.1,0.4l-1.5-0.6L180.9,507.6z"/>
			<path class="st4" d="M193.2,508.8l-0.6,1.5l-5.3,7.8l-1.5-0.6l5.3-7.8l-3.2-1.1l0.6-1.5L193.2,508.8z"/>
		</g>
	</g>
	<g>
		<path class="st1" d="M138.8,476.2C138.8,476.2,138.8,476.2,138.8,476.2L138.8,476.2c-3.1-2.1-6.9-2.4-10.2-1.2
			c-0.1,0.1-0.3,0.1-0.4,0.2c-0.5,0.2-0.9,0.4-1.4,0.7c-0.8,0.4-1.5,1-2.1,1.6c-0.5,0.5-1,1.1-1.4,1.7c-0.2,0.3-0.4,0.6-0.6,1
			c-0.3,0.5-0.5,1.1-0.7,1.7c-0.1,0.2-0.1,0.4-0.2,0.6c-0.2,0.6-0.3,1.1-0.3,1.7c0,0.4-0.1,0.8-0.1,1.2c0,0.4,0,0.8,0.1,1.3
			c0.2,1.4,0.6,2.7,1.2,3.9c0,0.1,0.1,0.1,0.1,0.2c0.5,0.9,1.1,1.7,1.8,2.5c0,0,0.1,0.1,0.1,0.1c0.5,0.5,1,0.9,1.6,1.3v0
			c0,0,0,0,0,0c5.1,3.4,12.1,2.1,15.5-3.1C145.4,486.6,144,479.6,138.8,476.2z"/>
		<g>
			<path class="st4" d="M128.9,480.3c0.5-0.9,1.2-1.4,2-1.5c0.7-0.1,1.3,0,2,0.4c0.6,0.4,1,0.9,1.1,1.7c0.2,0.7,0,1.4-0.3,2
				c-0.4,0.6-0.9,1.1-1.5,1.5c-0.4,0.2-1.1,0.6-2.1,1c-0.3,0.1-0.7,0.3-1.3,0.6l-0.5,0.2c-0.3,0.1-0.6,0.3-0.7,0.3
				c-0.1,0-0.1,0.1-0.1,0.1l2.8,1.7l-0.8,1.4l-4.5-2.8l0.8-1.3c0,0,0.2-0.1,0.6-0.3c0.2-0.1,0.4-0.2,0.6-0.3l0.7-0.3
				c0.4-0.2,1-0.4,1.9-0.8c0.8-0.3,1.5-0.7,2-1c0.4-0.3,0.7-0.6,0.9-0.9c0.2-0.3,0.2-0.6,0.2-0.9c0-0.3-0.2-0.6-0.5-0.7
				c-0.4-0.2-0.8-0.2-1.2,0.1c-0.1,0.1-0.3,0.3-0.4,0.5l-0.2,0.4l-1.4-0.9L128.9,480.3z"/>
			<path class="st4" d="M137.8,485.4l0.1-0.2c0.1-0.2,0.2-0.5,0.2-0.7c0-0.2-0.2-0.4-0.4-0.6c-0.2-0.1-0.4-0.2-0.7-0.1
				c-0.2,0.1-0.4,0.2-0.5,0.5l-1.1,1.8c0.5-0.1,0.9,0,1.3,0.2c0.6,0.4,1,0.9,1,1.5c0,0.5-0.1,1.1-0.6,1.8l-1,1.6l0,0
				c-0.4,0.6-0.9,0.9-1.6,1.1s-1.3,0-1.8-0.3c-0.6-0.4-1-0.9-1.1-1.6c-0.1-0.7,0-1.3,0.4-1.9l3.1-5c0.3-0.4,0.6-0.8,1.1-1
				c0.4-0.2,0.9-0.3,1.4-0.2c0.3,0,0.6,0.2,1,0.4c0.6,0.4,1,0.9,1.1,1.6c0.1,0.7,0,1.3-0.4,1.9l-0.1,0.2L137.8,485.4z M133.4,489.3
				c-0.1,0.2-0.2,0.4-0.2,0.7c0,0.2,0.1,0.4,0.4,0.6c0.2,0.1,0.4,0.2,0.7,0.1c0.2-0.1,0.4-0.2,0.5-0.4l1.1-1.7
				c0.2-0.3,0.2-0.5,0.1-0.8c0-0.1-0.1-0.3-0.3-0.4c-0.2-0.2-0.5-0.2-0.7-0.1c-0.2,0.1-0.4,0.2-0.5,0.4L133.4,489.3z"/>
		</g>
	</g>
	<g>
		<path class="st1" d="M95.5,439.7C95.5,439.7,95.5,439.7,95.5,439.7L95.5,439.7c0,0-0.1-0.1-0.1-0.1c-0.5-0.5-1-1-1.6-1.4
			c-1.8-1.3-3.8-1.9-5.9-2c-0.1,0-0.1,0-0.2,0c-2.1-0.1-4.3,0.5-6.2,1.7c-0.6,0.4-1.2,0.9-1.8,1.4c-0.8,0.8-1.5,1.7-2.1,2.6
			c-0.3,0.6-0.6,1.1-0.8,1.7c-0.4,1.1-0.6,2.3-0.7,3.5c0,0.9,0.1,1.9,0.3,2.8c0.1,0.6,0.3,1.2,0.6,1.8c0.2,0.4,0.4,0.9,0.6,1.3
			c0.1,0.1,0.1,0.2,0.2,0.3c0.3,0.6,0.8,1.1,1.2,1.6c0.1,0.1,0.1,0.1,0.2,0.2l0,0c0,0,0,0,0,0c4.2,4.5,11.3,4.7,15.8,0.5
			C99.6,451.3,99.8,444.2,95.5,439.7z"/>
		<g>
			<path class="st4" d="M84.9,441.7c0.7-0.7,1.5-1,2.3-1c0.7,0,1.3,0.3,1.8,0.9c0.5,0.5,0.7,1.2,0.7,1.9c0,0.7-0.3,1.4-0.8,1.8
				c-0.5,0.5-1.2,0.9-1.9,1.1c-0.4,0.1-1.2,0.3-2.3,0.4c-0.3,0-0.8,0.1-1.4,0.2l-0.5,0.1c-0.3,0.1-0.6,0.1-0.8,0.2
				c-0.1,0-0.1,0-0.2,0.1l2.2,2.4l-1.2,1.1l-3.6-3.8l1.1-1c0,0,0.3-0.1,0.7-0.2c0.2,0,0.4-0.1,0.7-0.1l0.7-0.1
				c0.4-0.1,1.1-0.1,2-0.3c0.9-0.1,1.6-0.3,2.2-0.5c0.5-0.2,0.9-0.4,1.2-0.7c0.2-0.2,0.4-0.5,0.4-0.8c0-0.3-0.1-0.6-0.3-0.8
				c-0.3-0.3-0.7-0.4-1.2-0.2c-0.2,0.1-0.3,0.2-0.5,0.4l-0.3,0.3l-1.1-1.2L84.9,441.7z"/>
			<path class="st4" d="M92.1,447.1l-1.7,1.6c0.3,0,0.6,0,0.9,0.1c0.2,0.1,0.3,0.2,0.5,0.3c0.5,0.5,0.7,1.1,0.6,1.7
				c-0.1,0.5-0.4,1-1,1.6l-1.7,1.6c-0.6,0.6-1.2,0.8-2,0.8c-0.7,0-1.3-0.3-1.8-0.8c-0.5-0.5-0.7-1.1-0.7-1.8c0-0.7,0.3-1.3,0.8-1.8
				l0.2-0.2l1.2,1.1l-0.2,0.3c-0.3,0.3-0.4,0.7-0.3,1c0,0.1,0.1,0.2,0.2,0.3c0.5,0.5,1,0.5,1.5,0l1.9-1.8c0.2-0.2,0.3-0.5,0.3-0.8
				c0-0.1-0.1-0.3-0.2-0.4c-0.2-0.2-0.4-0.3-0.7-0.2c-0.2,0.1-0.4,0.2-0.6,0.3l-0.2,0.2l-1.1-1.2l4.3-4.1l3.4,3.5l-1.2,1.1
				L92.1,447.1z"/>
		</g>
	</g>
	<g>
		<path class="st1" d="M370.6,509.2c-0.1-0.4-0.2-0.7-0.3-1.1c-0.8-2.1-2.1-3.9-3.8-5.2c-0.2-0.1-0.4-0.3-0.6-0.4
			c-1-0.7-2.1-1.2-3.3-1.5c-0.2,0-0.4-0.1-0.6-0.1c-2-0.4-4.1-0.3-6.1,0.4v0c0,0,0,0,0,0c-5.8,2.1-8.8,8.5-6.7,14.3
			c2.1,5.8,8.5,8.8,14.3,6.7c0,0,0,0,0,0l0,0c0.9-0.3,1.6-0.7,2.4-1.2c0.5-0.3,1-0.7,1.4-1.1c0.4-0.3,0.7-0.7,1-1.1
			c0.2-0.3,0.4-0.5,0.6-0.8c0.9-1.3,1.5-2.8,1.8-4.4c0-0.1,0-0.2,0.1-0.3c0.1-0.7,0.1-1.4,0.1-2.1c0,0,0,0,0,0
			C370.9,510.7,370.8,509.9,370.6,509.2z"/>
		<g>
			<path class="st4" d="M357.9,518.4l-2.8-8l-1.3,0.5l-0.4-1.1c0.4-0.2,0.7-0.4,0.9-0.8c0.3-0.4,0.4-0.7,0.4-1.1l1.1-0.4l3.7,10.4
				L357.9,518.4z"/>
			<path class="st4" d="M363.8,516.4l-2.8-8l-1.3,0.5l-0.4-1.1c0.4-0.2,0.7-0.4,0.9-0.8c0.3-0.4,0.4-0.7,0.4-1.1l1.1-0.4l3.7,10.4
				L363.8,516.4z"/>
		</g>
	</g>
	<g>
		<path class="st0" d="M397,495.1c-0.9-1.9-2.3-3.3-3.9-4.4c-3.2-2.1-7.4-2.4-11.1-0.6l0,0c0,0,0,0,0,0c-5.5,2.8-7.8,9.5-5,15
			c2.8,5.5,9.5,7.8,15,5c0,0,0,0,0,0l0,0c0.1,0,0.1-0.1,0.2-0.1c0.6-0.3,1.1-0.6,1.6-1c0.8-0.6,1.6-1.4,2.2-2.2
			c0.1-0.1,0.1-0.2,0.2-0.3c0,0,0-0.1,0.1-0.1c0.4-0.6,0.7-1.1,1-1.8c0.2-0.5,0.4-1,0.5-1.5c0.3-0.9,0.4-1.8,0.4-2.7
			C398.2,498.7,397.8,496.9,397,495.1z"/>
		<g>
			<path class="st4" d="M380.6,500.6c-0.5-0.9-0.6-1.8-0.3-2.5c0.2-0.6,0.7-1.1,1.4-1.5c0.7-0.3,1.3-0.3,2-0.1
				c0.7,0.3,1.2,0.7,1.5,1.4c0.3,0.7,0.5,1.4,0.5,2.2c0,0.4-0.1,1.2-0.3,2.3c0,0.3-0.1,0.8-0.2,1.4l-0.1,0.5c0,0.3-0.1,0.6-0.1,0.8
				c0,0.1,0,0.2,0,0.2l2.9-1.4l0.7,1.5l-4.7,2.3l-0.7-1.4c0,0,0-0.3,0.1-0.7c0-0.2,0.1-0.4,0.1-0.7l0.1-0.7c0.1-0.4,0.2-1.1,0.3-2
				c0.1-0.9,0.2-1.6,0.2-2.2c0-0.5-0.1-1-0.3-1.3c-0.1-0.3-0.4-0.5-0.6-0.6c-0.3-0.1-0.6-0.1-0.9,0c-0.4,0.2-0.6,0.6-0.5,1.1
				c0,0.2,0.1,0.4,0.2,0.6l0.2,0.4l-1.5,0.7L380.6,500.6z"/>
			<path class="st4" d="M387.4,493.7c0.7-0.3,1.3-0.3,2-0.1c0.6,0.2,1.1,0.7,1.4,1.3l2.6,5.4c0.3,0.7,0.4,1.3,0.2,2
				c-0.2,0.7-0.6,1.2-1.3,1.5c-0.7,0.3-1.3,0.4-2,0.1c-0.6-0.2-1.1-0.7-1.4-1.3l-0.1-0.2l1.5-0.8l0.1,0.2c0.1,0.2,0.3,0.4,0.5,0.5
				c0.2,0.1,0.4,0.1,0.7,0c0.2-0.1,0.4-0.3,0.4-0.5c0-0.2,0-0.5-0.1-0.7l-1-2c-0.2,0.5-0.5,0.8-0.9,1c-0.6,0.3-1.3,0.3-1.8,0
				c-0.5-0.3-0.9-0.7-1.3-1.5l-0.8-1.7l0,0c-0.2-0.5-0.3-0.9-0.2-1.4c0.1-0.5,0.2-0.9,0.6-1.3C386.8,494,387.1,493.8,387.4,493.7z
				 M389.3,495.7c-0.1-0.2-0.3-0.4-0.5-0.5c-0.2-0.1-0.4-0.1-0.7,0c-0.2,0.1-0.4,0.3-0.4,0.5c0,0.2,0,0.5,0.1,0.7l0.9,1.8
				c0.1,0.3,0.4,0.5,0.7,0.6c0.1,0,0.3,0,0.5-0.1c0.4-0.2,0.5-0.5,0.4-0.9c0-0.1-0.1-0.2-0.1-0.3L389.3,495.7z"/>
		</g>
	</g>
	<g>
		<path class="st1" d="M423.8,484.1c-0.1-0.6-0.2-1.2-0.3-1.7c-0.1-0.2-0.1-0.4-0.2-0.6c-0.2-0.6-0.4-1.1-0.7-1.7
			c-0.2-0.3-0.4-0.7-0.6-1c-0.4-0.6-0.9-1.2-1.4-1.7c-1.2-1.2-2.6-2-4.1-2.6c-3.2-1.1-6.9-0.8-10,1.2l0,0c0,0,0,0,0,0
			c-5.1,3.4-6.5,10.4-3.1,15.5c3.4,5.1,10.4,6.5,15.5,3.1c0,0,0,0,0,0l0,0c0.6-0.4,1.1-0.8,1.5-1.3c0.1-0.1,0.1-0.1,0.2-0.2
			c1.4-1.5,2.4-3.3,2.9-5.2c0.1-0.5,0.2-1.1,0.3-1.6C423.9,485.6,423.9,484.9,423.8,484.1z"/>
		<g>
			<path class="st4" d="M412.5,492.4l-4.7-7l-1.2,0.8l-0.6-1c0.3-0.3,0.5-0.6,0.7-1c0.2-0.4,0.2-0.8,0.1-1.2l1-0.6l6.2,9.1
				L412.5,492.4z"/>
			<path class="st4" d="M411.7,483.5c-0.6-0.9-0.8-1.7-0.6-2.4c0.1-0.7,0.5-1.2,1.2-1.7c0.6-0.4,1.3-0.5,2-0.4
				c0.7,0.2,1.3,0.5,1.7,1.1c0.4,0.6,0.7,1.3,0.8,2.1c0.1,0.4,0.1,1.2,0.1,2.4c0,0.3,0,0.8,0,1.4l0,0.5c0,0.4,0,0.6,0,0.8
				c0,0.1,0,0.2,0,0.2l2.7-1.8l0.9,1.3L416,490l-0.9-1.3c0,0,0-0.3,0-0.7c0-0.2,0-0.4,0-0.7l0-0.8c0-0.4,0-1.1,0.1-2
				c0-0.9,0-1.6-0.1-2.2c-0.1-0.5-0.3-0.9-0.5-1.3c-0.2-0.3-0.4-0.5-0.7-0.5c-0.3-0.1-0.6,0-0.9,0.1c-0.4,0.3-0.5,0.7-0.4,1.2
				c0,0.2,0.1,0.4,0.3,0.6l0.2,0.3l-1.3,0.9L411.7,483.5z"/>
		</g>
	</g>
	<g>
		<path class="st0" d="M446.2,462.4c-0.4-0.7-0.8-1.3-1.3-1.9c-0.2-0.3-0.5-0.6-0.8-0.8c-0.3-0.3-0.7-0.6-1.1-0.9
			c-2.9-2.2-6.6-2.8-10-1.7c0,0-0.1,0-0.1,0c-1,0.3-2,0.8-2.9,1.4c0,0-0.1,0.1-0.1,0.1c-0.3,0.2-0.5,0.4-0.8,0.6l0,0c0,0,0,0,0,0
			c-4.7,4-5.4,11-1.4,15.8c4,4.7,11,5.4,15.8,1.4c0,0,0,0,0,0l0,0c2.6-2.2,4-5.4,4-8.6c0,0,0-0.1,0-0.1
			C447.6,465.8,447.1,464,446.2,462.4z"/>
		<g>
			<path class="st4" d="M436.2,472.9c0.6-0.5,0.6-1,0.2-1.5l-0.4-0.5c-0.7-0.9-1.5-0.9-2.4-0.2l-0.9-1.1c0.5-0.4,0.7-0.8,0.7-1.3
				c0-0.4-0.2-0.9-0.5-1.3l-0.2-0.2c-0.5-0.5-0.9-0.6-1.4-0.2c-0.3,0.2-0.4,0.5-0.3,0.8c0,0.2,0.2,0.5,0.4,0.7l0.2,0.2l-1.2,1
				l-0.2-0.2c-0.5-0.6-0.8-1.2-0.8-1.8c0-0.7,0.3-1.3,0.9-1.9c0.6-0.5,1.2-0.7,1.9-0.6c0.6,0.1,1.2,0.4,1.6,0.9l0.3,0.4
				c0.4,0.5,0.7,1.1,0.7,1.7c0,0.3,0,0.5-0.1,0.8c0.6-0.1,1.1,0,1.7,0.2c0.3,0.1,0.6,0.4,0.8,0.7l0.6,0.7c0.5,0.6,0.7,1.3,0.6,2.1
				c-0.1,0.7-0.4,1.3-1,1.8c-0.6,0.5-1.2,0.7-1.9,0.6c-0.7-0.1-1.3-0.4-1.8-0.9l-0.2-0.2l1.1-1.1l0.3,0.3c0.2,0.2,0.4,0.3,0.7,0.3
				C435.8,473.2,436,473.1,436.2,472.9z"/>
			<path class="st4" d="M442.9,466.1c0.5,0.6,0.7,1.2,0.6,1.9c-0.1,0.7-0.4,1.3-0.9,1.8c-0.6,0.5-1.2,0.7-1.9,0.6
				c-0.7-0.1-1.3-0.4-1.8-0.9l-3.9-4.6c-0.5-0.6-0.7-1.2-0.6-1.9c0.1-0.7,0.4-1.3,0.9-1.8c0.6-0.5,1.2-0.7,1.9-0.6
				c0.7,0.1,1.3,0.4,1.8,0.9L442.9,466.1z M437.7,462.6c-0.2-0.2-0.4-0.3-0.6-0.3c-0.3,0-0.5,0.1-0.7,0.2c-0.2,0.2-0.3,0.4-0.3,0.6
				c0,0.3,0.1,0.5,0.2,0.7l3.9,4.6c0.2,0.2,0.4,0.3,0.6,0.3c0.3,0,0.5,0,0.7-0.2c0.2-0.2,0.3-0.4,0.3-0.6c0-0.3-0.1-0.5-0.2-0.7
				L437.7,462.6z"/>
		</g>
	</g>
	<g>
		<path class="st1" d="M469,446.8c0-0.6-0.1-1.2-0.2-1.8c0-0.2-0.1-0.3-0.1-0.5c-0.2-1-0.6-1.9-1.1-2.7c-0.5-1-1.2-1.9-2.1-2.6
			c-0.6-0.5-1.2-1-1.8-1.4c-1.9-1.2-4.1-1.7-6.2-1.7c0,0-0.1,0-0.1,0c-2.8,0.1-5.6,1.3-7.7,3.5l0,0c0,0,0,0,0,0
			c-4.2,4.5-4,11.6,0.5,15.8c4.5,4.2,11.6,4,15.8-0.5c0,0,0,0,0,0l0,0c0.1-0.1,0.1-0.1,0.2-0.2c0.5-0.5,0.9-1,1.2-1.6
			c0.9-1.5,1.5-3.2,1.6-4.9c0-0.4,0.1-0.9,0.1-1.3C469,446.9,469,446.9,469,446.8z"/>
		<g>
			<path class="st4" d="M458.9,454.4l-6.3-5.7l-0.9,1l-0.9-0.8c0.2-0.3,0.4-0.7,0.4-1.1c0.1-0.4,0-0.8-0.2-1.2l0.8-0.9l8.2,7.4
				L458.9,454.4z"/>
			<path class="st4" d="M462.8,447.6c0.5-0.6,0.5-1.1,0-1.6l-0.5-0.4c-0.8-0.8-1.7-0.7-2.4,0.2l-1.1-1c0.4-0.5,0.6-0.9,0.6-1.4
				c-0.1-0.4-0.3-0.8-0.7-1.2l-0.2-0.2c-0.5-0.5-1-0.5-1.4,0c-0.2,0.3-0.3,0.5-0.2,0.8c0.1,0.2,0.2,0.4,0.5,0.7l0.2,0.2l-1.1,1.2
				l-0.2-0.2c-0.6-0.5-0.9-1.1-1-1.7c-0.1-0.7,0.1-1.4,0.7-2c0.5-0.6,1.1-0.9,1.8-0.9c0.6,0,1.2,0.2,1.7,0.7l0.3,0.3
				c0.5,0.5,0.8,1,0.9,1.6c0,0.3,0,0.5,0,0.8c0.5-0.2,1.1-0.2,1.7,0c0.3,0.1,0.6,0.3,0.9,0.5l0.6,0.6c0.6,0.5,0.9,1.2,0.9,2
				c0,0.7-0.2,1.4-0.7,1.9c-0.5,0.5-1.1,0.8-1.8,0.9c-0.7,0-1.4-0.2-1.9-0.7l-0.2-0.2l1-1.3l0.3,0.2c0.2,0.2,0.5,0.2,0.7,0.2
				C462.4,447.9,462.6,447.8,462.8,447.6z"/>
		</g>
	</g>
	<g>
		<path class="st0" d="M487.5,421.5c-0.2-0.7-0.5-1.4-0.8-2c-0.4-0.8-0.9-1.6-1.6-2.3c-0.5-0.6-1.1-1.1-1.7-1.5
			c-1.2-0.9-2.6-1.5-4-1.9c-0.7-0.2-1.4-0.3-2.1-0.3c0,0,0,0,0,0c-2.1-0.1-4.3,0.5-6.1,1.5c-0.1,0-0.1,0.1-0.2,0.1
			c-0.5,0.3-1,0.6-1.4,1c-0.5,0.4-0.9,0.9-1.3,1.4c-0.1,0.2-0.3,0.3-0.4,0.5l0,0c0,0,0,0,0,0c-3.7,5-2.6,12,2.4,15.6
			c5,3.7,12,2.6,15.6-2.4c0,0,0,0,0,0l0,0c0.3-0.4,0.6-0.9,0.9-1.4c0.3-0.5,0.5-1,0.7-1.6c0.2-0.5,0.3-1.1,0.4-1.6
			c0.1-0.5,0.2-1,0.2-1.6C488,423.9,487.8,422.7,487.5,421.5z"/>
		<g>
			<path class="st4" d="M477.9,429.1c0.4-0.6,0.4-1.1-0.2-1.5l-0.5-0.4c-0.9-0.7-1.7-0.5-2.4,0.5l-1.2-0.8c0.4-0.5,0.5-1,0.4-1.5
				c-0.1-0.4-0.4-0.8-0.9-1.1l-0.2-0.1c-0.6-0.4-1.1-0.4-1.4,0.2c-0.2,0.3-0.2,0.6-0.1,0.9c0.1,0.2,0.3,0.4,0.5,0.6l0.2,0.2
				l-0.9,1.3l-0.2-0.1c-0.6-0.5-1-1-1.2-1.6c-0.2-0.7-0.1-1.4,0.4-2c0.4-0.6,1-1,1.7-1.1c0.6-0.1,1.2,0.1,1.8,0.5l0.4,0.3
				c0.6,0.4,0.9,0.9,1.1,1.5c0.1,0.3,0.1,0.5,0.1,0.8c0.5-0.2,1.1-0.3,1.7-0.2c0.3,0.1,0.6,0.2,1,0.4l0.7,0.5c0.7,0.5,1,1.1,1.1,1.8
				c0.1,0.7-0.1,1.4-0.5,2c-0.4,0.6-1,1-1.7,1.1c-0.7,0.1-1.4,0-2-0.4l-0.2-0.2l0.8-1.4l0.3,0.2c0.2,0.1,0.5,0.2,0.7,0.2
				C477.5,429.5,477.7,429.3,477.9,429.1z"/>
			<path class="st4" d="M482.9,424.7l-6.9-4.9l-0.8,1.1l-0.9-0.7c0.2-0.4,0.3-0.7,0.3-1.2c0-0.4-0.1-0.8-0.3-1.2l0.7-0.9l9,6.4
				L482.9,424.7z"/>
		</g>
	</g>
	<g>
		<path class="st3" d="M504.2,398.7c0-0.4-0.1-0.8-0.2-1.2c-0.1-0.4-0.2-0.8-0.3-1.2c-0.1-0.2-0.1-0.4-0.2-0.6
			c-0.2-0.4-0.4-0.8-0.6-1.3c-0.4-0.8-0.9-1.5-1.5-2.2c-0.2-0.3-0.5-0.5-0.8-0.8c-0.6-0.5-1.2-0.9-1.8-1.3c-0.3-0.2-0.7-0.4-1-0.5
			c-1.4-0.6-2.8-0.9-4.3-1c0,0,0,0,0,0c-4-0.1-7.9,1.9-10,5.6l0,0c0,0,0,0,0,0c-3.1,5.3-1.3,12.2,4.1,15.3
			c5.3,3.1,12.2,1.3,15.3-4.1c0,0,0,0,0,0l0,0c0.4-0.6,0.6-1.2,0.9-1.9c0-0.1,0.1-0.1,0.1-0.2c0-0.1,0-0.1,0-0.2
			c0.3-1,0.5-2,0.5-3.1C504.3,399.7,504.3,399.2,504.2,398.7z"/>
		<path class="st4" d="M489.8,400.6c-0.9-0.5-1.5-1.1-1.7-1.9c-0.2-0.7-0.1-1.3,0.3-2c0.3-0.6,0.9-1,1.6-1.2c0.7-0.2,1.4-0.1,2,0.2
			c0.7,0.4,1.2,0.8,1.7,1.5c0.3,0.3,0.6,1,1.1,2.1c0.1,0.3,0.4,0.7,0.7,1.3l0.2,0.5c0.2,0.3,0.3,0.5,0.4,0.7
			c0.1,0.1,0.1,0.1,0.1,0.1l1.6-2.9l1.4,0.8l-2.5,4.6l-1.3-0.7c0,0-0.2-0.2-0.4-0.6c-0.1-0.2-0.2-0.4-0.3-0.6l-0.3-0.7
			c-0.2-0.4-0.5-1-0.9-1.8c-0.4-0.8-0.8-1.4-1.2-1.9c-0.3-0.4-0.7-0.7-1-0.9c-0.3-0.2-0.6-0.2-0.9-0.2c-0.3,0.1-0.5,0.2-0.7,0.5
			c-0.2,0.4-0.1,0.8,0.2,1.2c0.1,0.1,0.3,0.3,0.5,0.4l0.4,0.2l-0.8,1.4L489.8,400.6z"/>
	</g>
	<g>
		<path class="st0" d="M516,367.7c-0.3-0.4-0.5-0.8-0.9-1.2c-0.4-0.5-0.9-1-1.4-1.5c-0.3-0.2-0.6-0.5-0.9-0.7
			c-0.6-0.4-1.3-0.8-2-1.1c-5.3-2.3-11.4-0.1-14.2,4.8c0,0,0,0,0,0c-0.2,0.3-0.3,0.7-0.5,1h0c0,0,0,0,0,0
			c-2.5,5.7,0.2,12.3,5.8,14.7c5.7,2.5,12.3-0.2,14.7-5.8c0,0,0,0,0,0l0,0c0.1-0.2,0.1-0.4,0.2-0.5c0.1-0.2,0.2-0.5,0.3-0.7
			C518,373.6,517.5,370.3,516,367.7z"/>
		<g>
			<path class="st4" d="M509.2,377.8c0.3-0.7,0.1-1.2-0.6-1.5l-0.6-0.2c-1-0.4-1.8-0.1-2.2,1l-1.3-0.5c0.2-0.6,0.3-1.1,0-1.5
				c-0.2-0.4-0.6-0.7-1.1-0.9l-0.2-0.1c-0.7-0.3-1.1-0.1-1.4,0.5c-0.1,0.3-0.1,0.6,0.1,0.9c0.1,0.2,0.4,0.3,0.7,0.5l0.3,0.1
				l-0.6,1.5l-0.2-0.1c-0.7-0.3-1.2-0.7-1.5-1.3c-0.3-0.6-0.4-1.3-0.1-2.1c0.3-0.7,0.8-1.2,1.4-1.4c0.6-0.2,1.2-0.2,1.9,0.1l0.4,0.2
				c0.6,0.3,1.1,0.7,1.4,1.2c0.1,0.2,0.2,0.5,0.3,0.8c0.4-0.3,1-0.5,1.6-0.6c0.3,0,0.7,0,1,0.2l0.8,0.3c0.8,0.3,1.3,0.8,1.5,1.5
				c0.3,0.7,0.3,1.4,0,2.1c-0.3,0.7-0.7,1.2-1.4,1.4c-0.7,0.3-1.3,0.3-2,0l-0.3-0.1l0.5-1.5l0.4,0.1c0.3,0.1,0.5,0.1,0.7,0
				C508.9,378.3,509.1,378.1,509.2,377.8z"/>
			<path class="st4" d="M504.8,371.8c-1-0.4-1.6-1-1.9-1.7c-0.3-0.6-0.2-1.3,0-2c0.3-0.7,0.8-1.1,1.5-1.4c0.7-0.3,1.4-0.3,2.1,0
				c0.7,0.3,1.3,0.7,1.8,1.3c0.3,0.3,0.7,1,1.4,1.9c0.2,0.3,0.4,0.7,0.8,1.2l0.3,0.4c0.2,0.3,0.4,0.5,0.5,0.7
				c0.1,0.1,0.1,0.1,0.1,0.1l1.2-3l1.5,0.6l-2,4.9l-1.4-0.6c0,0-0.2-0.2-0.4-0.6c-0.1-0.2-0.2-0.4-0.4-0.6l-0.4-0.6
				c-0.2-0.4-0.6-0.9-1.1-1.7c-0.5-0.7-0.9-1.3-1.4-1.8c-0.4-0.4-0.7-0.6-1.1-0.8c-0.3-0.1-0.6-0.1-0.9-0.1
				c-0.3,0.1-0.5,0.3-0.6,0.6c-0.2,0.4-0.1,0.8,0.4,1.2c0.1,0.1,0.3,0.2,0.5,0.3l0.4,0.2l-0.6,1.5L504.8,371.8z"/>
		</g>
	</g>
	<g>
		<path class="st3" d="M527.2,342.3c0-0.1,0-0.1-0.1-0.2c0-0.1-0.1-0.2-0.1-0.3c-0.1-0.2-0.2-0.5-0.3-0.7c-0.5-1.2-1.3-2.4-2.3-3.4
			c0,0-0.1-0.1-0.1-0.1c-0.8-0.8-1.7-1.4-2.6-1.9c-0.7-0.3-1.4-0.6-2.1-0.8c-0.7-0.2-1.5-0.4-2.2-0.4c-0.4,0-0.7,0-1.1,0
			c-0.4,0-0.9,0-1.3,0.1c-2.8,0.4-5.3,1.8-7.1,3.9c-0.1,0.1-0.2,0.2-0.3,0.4c-0.3,0.4-0.6,0.9-0.9,1.4c-0.3,0.6-0.6,1.2-0.8,1.9
			c0,0.1-0.1,0.3-0.1,0.4l0,0c0,0,0,0,0,0c-1.7,5.9,1.7,12.1,7.6,13.9c5.9,1.7,12.1-1.7,13.9-7.6c0,0,0,0,0,0l0,0c0,0,0,0,0-0.1
			c0.3-1.1,0.5-2.2,0.4-3.3C527.6,344.3,527.5,343.3,527.2,342.3z"/>
		<path class="st4" d="M520.2,346.6c0.2-0.7,0-1.2-0.7-1.4l-0.6-0.2c-1.1-0.3-1.8,0.1-2.1,1.2l-1.4-0.4c0.2-0.6,0.2-1.1-0.1-1.5
			c-0.2-0.4-0.6-0.6-1.2-0.8l-0.2-0.1c-0.7-0.2-1.1,0-1.3,0.6c-0.1,0.3-0.1,0.6,0.1,0.9c0.2,0.2,0.4,0.3,0.7,0.4l0.3,0.1l-0.5,1.5
			l-0.2-0.1c-0.7-0.2-1.3-0.6-1.6-1.1c-0.4-0.6-0.5-1.3-0.2-2.1c0.2-0.7,0.7-1.3,1.3-1.5c0.6-0.3,1.2-0.3,1.9-0.1l0.4,0.1
			c0.7,0.2,1.2,0.6,1.5,1.1c0.1,0.2,0.3,0.5,0.3,0.7c0.4-0.4,0.9-0.6,1.5-0.7c0.3,0,0.7,0,1.1,0.1l0.8,0.3c0.8,0.2,1.3,0.7,1.7,1.4
			c0.3,0.7,0.4,1.3,0.1,2.1c-0.2,0.7-0.7,1.2-1.3,1.5c-0.6,0.3-1.3,0.4-2,0.2l-0.3-0.1l0.4-1.5l0.4,0.1c0.3,0.1,0.5,0,0.7-0.1
			C519.9,347,520.1,346.9,520.2,346.6z"/>
	</g>
	<g>
		<path class="st0" d="M531,308.9c-0.8-0.8-1.7-1.4-2.6-1.9c-1-0.5-2-0.9-3.2-1.1c-0.8-0.1-1.5-0.2-2.3-0.2c-1.7,0-3.3,0.5-4.7,1.2
			c-3,1.5-5.4,4.4-6,8h0c0,0,0,0,0,0c-1.1,6.1,3,11.9,9.1,13c6.1,1.1,11.9-3,13-9.1c0,0,0,0,0,0l0,0
			C534.9,315.1,533.6,311.4,531,308.9C531,308.9,531,308.9,531,308.9z"/>
		<g>
			<path class="st4" d="M526.3,321.2c0.2-0.7-0.1-1.2-0.8-1.3l-0.6-0.1c-1.1-0.2-1.8,0.2-2,1.4l-1.4-0.3c0.1-0.6,0-1.1-0.2-1.5
				c-0.3-0.3-0.7-0.6-1.2-0.7l-0.2-0.1c-0.7-0.1-1.1,0.1-1.2,0.7c-0.1,0.3,0,0.6,0.2,0.8c0.2,0.2,0.4,0.3,0.7,0.3l0.3,0.1l-0.3,1.6
				l-0.2-0.1c-0.8-0.2-1.4-0.5-1.8-1c-0.5-0.6-0.6-1.2-0.4-2c0.2-0.8,0.5-1.3,1.1-1.7c0.5-0.3,1.2-0.4,1.9-0.3l0.5,0.1
				c0.7,0.1,1.2,0.5,1.6,1c0.2,0.2,0.3,0.4,0.4,0.7c0.4-0.4,0.9-0.7,1.5-0.9c0.3-0.1,0.7-0.1,1.1,0l0.9,0.2c0.8,0.2,1.4,0.6,1.8,1.2
				c0.4,0.6,0.5,1.3,0.4,2c-0.1,0.7-0.5,1.3-1.1,1.7c-0.6,0.4-1.3,0.5-2,0.4l-0.3-0.1l0.2-1.6l0.4,0c0.3,0,0.5,0,0.7-0.2
				C526.1,321.6,526.3,321.4,526.3,321.2z"/>
			<path class="st4" d="M527.7,314.3c0.2-0.7-0.1-1.2-0.8-1.3l-0.6-0.1c-1.1-0.2-1.8,0.2-2,1.4l-1.4-0.3c0.1-0.6,0-1.1-0.2-1.5
				c-0.3-0.3-0.7-0.6-1.2-0.7l-0.2-0.1c-0.7-0.1-1.1,0.1-1.2,0.7c-0.1,0.3,0,0.6,0.2,0.8c0.2,0.2,0.4,0.3,0.7,0.3l0.3,0.1l-0.3,1.6
				l-0.2-0.1c-0.8-0.2-1.4-0.5-1.8-1c-0.5-0.6-0.6-1.2-0.4-2c0.2-0.8,0.5-1.3,1.1-1.7c0.5-0.3,1.2-0.4,1.9-0.3l0.5,0.1
				c0.7,0.1,1.2,0.5,1.6,1c0.2,0.2,0.3,0.4,0.4,0.7c0.4-0.4,0.9-0.7,1.5-0.9c0.3-0.1,0.7-0.1,1.1,0l0.9,0.2c0.8,0.2,1.4,0.6,1.8,1.2
				c0.4,0.6,0.5,1.3,0.4,2c-0.1,0.7-0.5,1.3-1.1,1.7c-0.6,0.4-1.3,0.5-2,0.4l-0.3-0.1l0.2-1.6l0.4,0c0.3,0,0.5,0,0.7-0.2
				C527.5,314.8,527.7,314.6,527.7,314.3z"/>
		</g>
	</g>
	<g>
		<path class="st1" d="M537.3,283.9C537.3,283.8,537.3,283.8,537.3,283.9c-1.5-4.2-5.3-7.2-9.9-7.5c0,0,0,0,0,0
			c-2.1-0.1-4.1,0.4-5.9,1.3c-3.3,1.8-5.7,5.2-5.9,9.2l0,0c0,0,0,0,0,0c-0.4,6.2,4.3,11.5,10.5,11.8c6.2,0.4,11.5-4.3,11.8-10.5
			c0-0.4,0-0.8,0-1.1C537.8,285.9,537.6,284.9,537.3,283.9z"/>
		<g>
			<path class="st4" d="M532.5,291.7l-8.4-0.5l-0.1,1.4l-1.2-0.1c0-0.4-0.2-0.8-0.4-1.2c-0.2-0.4-0.5-0.6-0.9-0.8l0.1-1.2l11,0.6
				L532.5,291.7z"/>
			<path class="st4" d="M528.7,287.1l-6.8-3.3l0.1-1.7l6.9,0.4l0.1-1.1l1.7,0.1l-0.1,1.1l2.4,0.1l-0.1,1.7l-2.4-0.1l-0.2,2.9
				L528.7,287.1z M528.8,284.2l-3.4-0.2l3.3,1.6L528.8,284.2z"/>
		</g>
	</g>
	<g>
		<path class="st0" d="M530.8,247.4c-0.5-0.2-1.1-0.4-1.7-0.5c-0.7-0.1-1.3-0.2-2-0.3c-0.4,0-0.8,0-1.1,0c-1.3,0.1-2.6,0.4-3.7,0.9
			c-0.3,0.1-0.6,0.3-1,0.5c-0.4,0.2-0.8,0.5-1.2,0.7c-3,2.2-4.8,5.8-4.5,9.8h0c0,0,0,0,0,0c0.4,6.2,5.8,10.8,11.9,10.4
			c6.2-0.4,10.8-5.8,10.4-11.9c0,0,0,0,0,0l0,0C537.6,252.6,534.7,248.9,530.8,247.4z"/>
		<g>
			<path class="st4" d="M531.3,261.3c0-0.8-0.4-1.1-1.1-1.1l-0.6,0c-1.1,0.1-1.7,0.7-1.6,1.9l-1.4,0.1c0-0.6-0.2-1.1-0.6-1.4
				c-0.3-0.3-0.8-0.4-1.4-0.3l-0.3,0c-0.7,0-1.1,0.4-1,1c0,0.3,0.2,0.6,0.4,0.7c0.2,0.1,0.5,0.2,0.8,0.1l0.3,0l0.1,1.6l-0.3,0
				c-0.8,0-1.4-0.1-1.9-0.5c-0.6-0.4-0.9-1-1-1.8c0-0.8,0.2-1.4,0.7-1.9c0.4-0.4,1-0.7,1.7-0.7l0.5,0c0.7,0,1.3,0.1,1.8,0.5
				c0.2,0.2,0.4,0.4,0.6,0.6c0.2-0.5,0.6-0.9,1.2-1.2c0.3-0.2,0.6-0.2,1-0.3l0.9-0.1c0.8,0,1.5,0.2,2,0.7c0.5,0.5,0.8,1.1,0.9,1.9
				c0,0.7-0.2,1.4-0.7,1.9c-0.5,0.5-1.1,0.8-1.8,0.9l-0.3,0l-0.2-1.6l0.4-0.1c0.3,0,0.5-0.2,0.7-0.3
				C531.2,261.8,531.3,261.6,531.3,261.3z"/>
			<path class="st4" d="M528.5,257.3l-7.1-2.5l-0.1-1.7l6.9-0.4l-0.1-1.1l1.7-0.1l0.1,1.1l2.4-0.1l0.1,1.7l-2.4,0.1l0.2,2.9
				L528.5,257.3z M528.4,254.4l-3.4,0.2l3.5,1.2L528.4,254.4z"/>
		</g>
	</g>
	<g>
		<path class="st1" d="M527.3,218.1c-0.5-0.2-0.9-0.3-1.4-0.4c-0.4-0.1-0.7-0.1-1.1-0.2c-1.1-0.1-2.2-0.1-3.4,0.1
			c-0.5,0.1-1,0.2-1.5,0.4c-0.4,0.1-0.8,0.3-1.3,0.5c-0.3,0.1-0.5,0.3-0.8,0.4c-0.8,0.5-1.6,1-2.3,1.7c0,0,0,0,0,0
			c-2.6,2.5-3.9,6.2-3.2,10h0c0,0,0,0,0,0c1.1,6.1,6.9,10.1,13,9.1c6.1-1.1,10.1-6.9,9.1-13c-0.1-0.4-0.2-0.8-0.3-1.1
			c-0.2-0.6-0.4-1.1-0.6-1.6c-0.2-0.5-0.5-0.9-0.8-1.4c-0.3-0.5-0.7-1-1.2-1.5c-0.1-0.1-0.1-0.1-0.2-0.2
			C530.2,219.6,528.8,218.7,527.3,218.1z"/>
		<g>
			<path class="st4" d="M529.6,231.8l-8.3,1.4l0.2,1.4l-1.1,0.2c-0.1-0.4-0.3-0.7-0.6-1c-0.3-0.3-0.7-0.5-1-0.6l-0.2-1.1l10.8-1.8
				L529.6,231.8z"/>
			<path class="st4" d="M519.3,226.8l2.3-0.4c-0.3-0.1-0.5-0.3-0.7-0.6c-0.1-0.1-0.2-0.3-0.2-0.5c-0.1-0.7,0-1.3,0.5-1.7
				c0.4-0.4,1-0.6,1.8-0.8l2.3-0.4c0.8-0.1,1.5,0,2.1,0.4c0.6,0.4,0.9,1,1.1,1.7c0.1,0.7,0,1.4-0.5,1.9c-0.4,0.5-1,0.9-1.7,1l-0.3,0
				l-0.4-1.5l0.4-0.1c0.4-0.1,0.7-0.3,0.8-0.7c0-0.1,0-0.2,0-0.3c-0.1-0.7-0.5-0.9-1.2-0.8l-2.7,0.4c-0.3,0.1-0.6,0.2-0.7,0.5
				c-0.1,0.1-0.1,0.3-0.1,0.5c0,0.3,0.2,0.5,0.4,0.6c0.2,0.1,0.4,0.1,0.7,0.1l0.3,0l0.3,1.6l-5.9,1l-0.8-4.8l1.6-0.3L519.3,226.8z"
				/>
		</g>
	</g>
	<g>
		<path class="st0" d="M524.3,191.6c-0.4-0.4-0.8-0.7-1.2-1c-0.3-0.2-0.6-0.4-0.9-0.6c-0.1-0.1-0.2-0.1-0.3-0.2
			c-0.9-0.5-1.8-0.8-2.8-1c-0.8-0.2-1.6-0.3-2.4-0.3c0,0,0,0,0,0c-0.7,0-1.4,0.1-2,0.2c-0.4,0.1-0.8,0.2-1.3,0.3
			c-1.1,0.3-2.1,0.8-3,1.4c-0.6,0.4-1.2,0.9-1.7,1.4c-0.3,0.3-0.7,0.7-0.9,1.1c-2.1,2.8-2.9,6.4-1.8,10h0c0,0,0,0,0,0
			c1.8,5.9,8,9.3,14,7.5c5.9-1.8,9.3-8,7.5-14c-0.3-1.1-0.8-2.1-1.4-3c0,0-0.1-0.1-0.1-0.1c-0.4-0.6-0.8-1.1-1.3-1.5
			C524.4,191.7,524.4,191.6,524.3,191.6z"/>
		<g>
			<path class="st4" d="M521.6,202.2c-0.2-0.7-0.7-1-1.3-0.8l-0.6,0.2c-1.1,0.3-1.4,1.1-1.1,2.2l-1.4,0.4c-0.2-0.6-0.5-1-0.9-1.2
				c-0.4-0.2-0.9-0.2-1.4,0l-0.2,0.1c-0.7,0.2-0.9,0.6-0.8,1.2c0.1,0.3,0.3,0.5,0.6,0.6c0.2,0.1,0.5,0,0.8-0.1l0.3-0.1l0.5,1.5
				l-0.2,0.1c-0.7,0.2-1.4,0.2-2,0c-0.7-0.3-1.1-0.8-1.4-1.6c-0.2-0.7-0.2-1.4,0.2-2c0.3-0.5,0.8-0.9,1.5-1.1l0.4-0.1
				c0.7-0.2,1.3-0.2,1.9,0.1c0.3,0.1,0.5,0.2,0.7,0.4c0.1-0.5,0.4-1,0.9-1.5c0.2-0.2,0.5-0.4,0.9-0.5l0.8-0.3
				c0.8-0.2,1.5-0.2,2.2,0.2c0.6,0.4,1.1,0.9,1.3,1.6c0.2,0.7,0.2,1.4-0.2,2c-0.3,0.6-0.9,1.1-1.5,1.3l-0.3,0.1l-0.6-1.5l0.4-0.1
				c0.3-0.1,0.4-0.3,0.6-0.5C521.6,202.7,521.7,202.5,521.6,202.2z"/>
			<path class="st4" d="M512.4,198.8l2.3-0.7c-0.3-0.1-0.5-0.3-0.7-0.5c-0.1-0.1-0.2-0.3-0.3-0.5c-0.2-0.7-0.1-1.3,0.3-1.8
				c0.3-0.4,0.9-0.7,1.6-1l2.3-0.7c0.8-0.2,1.5-0.2,2.1,0.2c0.6,0.3,1,0.8,1.3,1.6c0.2,0.7,0.1,1.3-0.2,2c-0.3,0.6-0.9,1-1.6,1.2
				l-0.3,0.1l-0.6-1.5l0.4-0.1c0.4-0.2,0.6-0.4,0.7-0.8c0-0.1,0-0.2,0-0.3c-0.2-0.6-0.6-0.9-1.3-0.7l-2.6,0.8
				c-0.3,0.1-0.5,0.3-0.7,0.6c-0.1,0.1-0.1,0.3,0,0.5c0.1,0.3,0.3,0.5,0.5,0.5c0.2,0.1,0.4,0,0.7,0l0.3-0.1l0.5,1.6l-5.7,1.8
				l-1.4-4.6l1.6-0.5L512.4,198.8z"/>
		</g>
	</g>
	<g>
		<path class="st1" d="M514,163.3c-0.4-0.4-0.9-0.8-1.4-1.1c-0.2-0.1-0.5-0.3-0.7-0.4c-0.1,0-0.2-0.1-0.3-0.1
			c-0.8-0.4-1.7-0.7-2.7-0.9c-0.2,0-0.4-0.1-0.6-0.1c-0.6-0.1-1.3-0.2-1.9-0.1c-0.7,0-1.5,0.1-2.2,0.3c-0.7,0.2-1.4,0.4-2.2,0.7
			c-0.7,0.3-1.4,0.7-2,1.1c-0.5,0.3-0.9,0.7-1.3,1.1c-0.3,0.2-0.5,0.5-0.7,0.8c-0.3,0.3-0.5,0.6-0.7,1c-0.3,0.4-0.6,0.9-0.8,1.3
			c0,0,0,0.1-0.1,0.1c-1.1,2.2-1.4,4.8-0.9,7.3c0,0,0,0.1,0,0.1c0.2,0.7,0.4,1.4,0.7,2.1l0,0c0,0,0,0,0,0c2.5,5.6,9.1,8.2,14.8,5.7
			c5.6-2.5,8.2-9.1,5.7-14.8c0,0,0,0,0,0l0,0c0,0,0,0,0-0.1c-0.6-1.4-1.5-2.6-2.5-3.6C514.2,163.5,514.1,163.4,514,163.3z"/>
		<g>
			<path class="st4" d="M513.6,173l-7.7,3.4l0.6,1.3l-1.1,0.5c-0.2-0.3-0.5-0.6-0.9-0.9c-0.4-0.2-0.8-0.3-1.2-0.3l-0.5-1.1l10-4.5
				L513.6,173z"/>
			<path class="st4" d="M503,169.5l-0.2,0.1c-0.2,0.1-0.4,0.3-0.5,0.5c-0.1,0.2-0.1,0.4,0,0.7c0.1,0.2,0.3,0.4,0.5,0.4
				c0.2,0.1,0.5,0,0.7-0.1l2-0.9c-0.5-0.2-0.8-0.5-1-0.9c-0.3-0.7-0.3-1.3,0-1.8c0.3-0.5,0.8-0.9,1.5-1.2l1.7-0.8l0,0
				c0.7-0.3,1.3-0.3,1.9,0c0.6,0.2,1.1,0.7,1.4,1.3c0.3,0.7,0.3,1.3,0,2c-0.3,0.6-0.7,1.1-1.4,1.4l-5.5,2.4c-0.5,0.2-1,0.3-1.5,0.2
				c-0.5-0.1-0.9-0.3-1.3-0.6c-0.3-0.2-0.5-0.5-0.6-0.8c-0.3-0.7-0.3-1.3,0-2c0.3-0.6,0.7-1.1,1.4-1.4l0.2-0.1L503,169.5z
				 M508.9,168.7c0.2-0.1,0.4-0.3,0.5-0.5c0.1-0.2,0.1-0.4,0-0.7c-0.1-0.2-0.3-0.4-0.5-0.4c-0.2-0.1-0.4,0-0.7,0.1l-1.9,0.8
				c-0.3,0.1-0.5,0.3-0.6,0.6c0,0.1,0,0.3,0.1,0.5c0.1,0.3,0.3,0.4,0.6,0.5c0.2,0,0.4,0,0.6-0.1L508.9,168.7z"/>
		</g>
	</g>
	<g>
		<path class="st0" d="M489.7,134.8c-0.4,0.1-0.7,0.3-1,0.4c-0.3,0.2-0.7,0.3-1,0.5c-1.3,0.8-2.5,1.8-3.3,2.9
			c-2.6,3.5-3.1,8.3-0.7,12.4l0,0c0,0,0,0,0,0c3.1,5.4,9.9,7.2,15.3,4.1c5.4-3.1,7.2-9.9,4.1-15.3c0,0,0,0,0,0l0,0
			c-0.1-0.2-0.2-0.4-0.4-0.6c-0.1-0.1-0.2-0.3-0.3-0.4c-0.9-1.2-2-2.2-3.2-2.9c0,0,0,0-0.1,0c-0.2-0.2-0.5-0.3-0.8-0.4
			c-0.1,0-0.1-0.1-0.2-0.1c-0.9-0.4-1.8-0.7-2.8-0.9c-0.8-0.2-1.6-0.2-2.4-0.2C491.8,134.3,490.8,134.5,489.7,134.8z"/>
		<g>
			<path class="st4" d="M498.7,146.5c-0.4-0.7-0.9-0.8-1.5-0.5l-0.6,0.3c-1,0.5-1.2,1.3-0.6,2.4l-1.2,0.7c-0.3-0.6-0.7-0.9-1.2-1
				c-0.4-0.1-0.9,0-1.4,0.3l-0.2,0.1c-0.6,0.3-0.8,0.8-0.5,1.4c0.2,0.3,0.4,0.5,0.7,0.5c0.2,0,0.5-0.1,0.8-0.2l0.3-0.1l0.8,1.4
				l-0.2,0.1c-0.7,0.4-1.3,0.5-2,0.4c-0.7-0.1-1.3-0.5-1.7-1.2c-0.4-0.7-0.5-1.3-0.2-2c0.2-0.6,0.6-1.1,1.2-1.4l0.4-0.2
				c0.6-0.3,1.2-0.4,1.8-0.3c0.3,0,0.5,0.1,0.8,0.3c0-0.6,0.2-1.1,0.5-1.6c0.2-0.3,0.5-0.5,0.8-0.7l0.8-0.4c0.7-0.4,1.4-0.5,2.2-0.2
				c0.7,0.2,1.2,0.7,1.6,1.3c0.4,0.6,0.4,1.3,0.2,2c-0.2,0.7-0.6,1.2-1.2,1.6l-0.2,0.1L498,148l0.3-0.2c0.2-0.2,0.4-0.3,0.4-0.6
				C498.9,147,498.8,146.7,498.7,146.5z"/>
			<path class="st4" d="M489.3,143.3l-0.2,0.1c-0.2,0.1-0.4,0.3-0.5,0.5c-0.1,0.2-0.1,0.4,0.1,0.7c0.1,0.2,0.3,0.4,0.5,0.4
				c0.2,0,0.5,0,0.7-0.1l1.9-1.1c-0.5-0.2-0.8-0.4-1.1-0.8c-0.4-0.6-0.4-1.2-0.1-1.8c0.2-0.5,0.7-0.9,1.4-1.3l1.6-0.9l0,0
				c0.6-0.3,1.3-0.4,1.9-0.2c0.6,0.2,1.1,0.6,1.5,1.2c0.4,0.6,0.4,1.3,0.2,2c-0.2,0.6-0.6,1.1-1.3,1.5l-5.2,2.9
				c-0.5,0.3-1,0.4-1.5,0.4c-0.5,0-1-0.2-1.4-0.5c-0.3-0.2-0.5-0.5-0.7-0.8c-0.4-0.6-0.4-1.3-0.2-2c0.2-0.6,0.6-1.1,1.3-1.5l0.2-0.1
				L489.3,143.3z M495.1,141.9c0.2-0.1,0.4-0.3,0.5-0.5c0.1-0.2,0.1-0.4,0-0.7s-0.3-0.4-0.6-0.4c-0.2,0-0.5,0-0.7,0.1l-1.8,1
				c-0.3,0.2-0.4,0.4-0.5,0.7c0,0.1,0,0.3,0.1,0.5c0.1,0.3,0.3,0.4,0.6,0.4c0.2,0,0.4,0,0.6-0.1L495.1,141.9z"/>
		</g>
	</g>
	<g>
		<path class="st3" d="M470.2,111.7c-1.5,1.1-2.7,2.6-3.4,4.2c0,0,0,0,0,0.1c0,0.1-0.1,0.2-0.1,0.3c-0.5,1.2-0.8,2.5-0.9,3.8
			c0,0.4,0,0.9,0,1.3c0.1,1.7,0.6,3.4,1.6,5c0,0,0,0,0,0c0.2,0.3,0.4,0.6,0.6,0.9l0,0c0,0,0,0,0,0c3.7,4.9,10.7,6,15.7,2.3
			c4.9-3.7,6-10.7,2.3-15.7c-0.9-1.2-2-2.2-3.3-2.9c-0.2-0.1-0.3-0.2-0.5-0.3c-0.3-0.2-0.7-0.3-1.1-0.5c-0.7-0.3-1.4-0.5-2.2-0.6
			c-0.5-0.1-1-0.2-1.5-0.2c-1.4-0.1-2.9,0.1-4.3,0.6c-0.7,0.2-1.4,0.6-2,1C470.9,111.2,470.5,111.5,470.2,111.7z"/>
		<path class="st4" d="M480.4,122.8l-7.3,1.9l-1-1.3l5.5-4.2l-0.6-0.8l1.3-1l0.6,0.8l1.9-1.4l1,1.3l-1.9,1.4l1.8,2.3L480.4,122.8z
			 M478.6,120.4l-2.7,2.1l3.6-1L478.6,120.4z"/>
	</g>
	<g>
		<path class="st0" d="M447.3,94.1c-1.4,3.9-0.6,8.4,2.5,11.5l0,0c0,0,0,0,0,0c4.3,4.5,11.4,4.6,15.8,0.3c4.5-4.3,4.6-11.4,0.3-15.8
			c0,0,0,0,0,0l0,0c-0.5-0.5-1-0.9-1.5-1.3c-0.1-0.1-0.2-0.1-0.3-0.2c-0.5-0.3-1-0.6-1.5-0.8c-0.3-0.1-0.5-0.2-0.8-0.3
			c-1.2-0.5-2.5-0.7-3.7-0.8c0,0-0.1,0-0.1,0c-1.1,0-2.2,0.1-3.2,0.4c-0.7,0.2-1.4,0.5-2,0.8c-1,0.5-1.9,1.1-2.7,1.9
			C448.8,91,447.9,92.5,447.3,94.1z"/>
		<g>
			<path class="st4" d="M463.5,97.4c-0.5-0.6-1-0.6-1.6-0.1l-0.5,0.4c-0.8,0.8-0.9,1.6-0.1,2.4l-1,1c-0.4-0.5-0.9-0.7-1.3-0.7
				c-0.4,0-0.9,0.2-1.3,0.6l-0.2,0.2c-0.5,0.5-0.6,1-0.2,1.4c0.2,0.3,0.5,0.4,0.8,0.3c0.2,0,0.5-0.2,0.7-0.4l0.2-0.2l1.1,1.2
				l-0.2,0.2c-0.6,0.5-1.2,0.8-1.8,0.8c-0.7,0-1.4-0.2-1.9-0.8c-0.5-0.6-0.7-1.2-0.7-1.9c0.1-0.6,0.4-1.2,0.9-1.7l0.3-0.3
				c0.5-0.5,1.1-0.7,1.7-0.7c0.3,0,0.5,0,0.8,0.1c-0.1-0.5-0.1-1.1,0.2-1.7c0.1-0.3,0.3-0.6,0.6-0.9l0.6-0.6c0.6-0.5,1.3-0.8,2-0.7
				c0.7,0.1,1.3,0.4,1.8,0.9c0.5,0.5,0.7,1.2,0.7,1.9c0,0.7-0.3,1.3-0.9,1.8l-0.2,0.2l-1.2-1.1l0.3-0.3c0.2-0.2,0.3-0.4,0.3-0.7
				C463.8,97.8,463.7,97.6,463.5,97.4z"/>
			<path class="st4" d="M450.2,96.9l1.2-1.1l8.5-4.6l1.1,1.2l-8.5,4.6l2.3,2.5l-1.2,1.1L450.2,96.9z"/>
		</g>
	</g>
	<g>
		<path class="st3" d="M425.3,77.5C425.3,77.5,425.3,77.5,425.3,77.5c0,2.5,0.8,4.9,2.3,6.9c0.1,0.2,0.3,0.3,0.4,0.5
			c0.4,0.5,0.8,0.9,1.3,1.3l0,0c0,0,0,0,0,0c4.7,4,11.8,3.4,15.8-1.4c4-4.7,3.4-11.8-1.4-15.8c-0.3-0.2-0.6-0.5-0.9-0.7
			c0,0-0.1,0-0.1-0.1c-0.9-0.6-1.9-1.1-2.9-1.4c-0.5-0.2-1.1-0.3-1.6-0.4c-0.5-0.1-1-0.1-1.6-0.1c-1.2,0-2.4,0.2-3.5,0.6
			c-0.7,0.2-1.4,0.5-2.1,0.9c-0.3,0.2-0.6,0.4-0.9,0.6c-0.5,0.3-0.9,0.7-1.4,1.1c-0.3,0.3-0.5,0.5-0.8,0.8c-0.2,0.3-0.5,0.6-0.7,0.9
			C426,73.2,425.3,75.4,425.3,77.5z"/>
		<path class="st4" d="M434.6,80.6l1.5-1.8c-0.3,0.1-0.6,0.1-0.9,0c-0.2-0.1-0.3-0.1-0.5-0.3c-0.6-0.5-0.8-1-0.7-1.6
			c0.1-0.5,0.3-1.1,0.8-1.7l1.5-1.8c0.5-0.6,1.1-1,1.9-1c0.7-0.1,1.3,0.1,1.9,0.6c0.6,0.5,0.8,1.1,0.9,1.8c0,0.7-0.2,1.3-0.7,1.9
			l-0.2,0.2l-1.3-0.9l0.2-0.3c0.3-0.4,0.3-0.7,0.2-1c0-0.1-0.1-0.2-0.2-0.2c-0.5-0.4-1-0.4-1.5,0.2l-1.7,2.1
			c-0.2,0.2-0.3,0.5-0.2,0.8c0,0.1,0.1,0.3,0.3,0.4c0.2,0.2,0.5,0.2,0.7,0.2c0.2-0.1,0.4-0.2,0.5-0.4l0.2-0.2l1.3,1.1l-3.9,4.6
			l-3.7-3.1l1.1-1.3L434.6,80.6z"/>
	</g>
	<g>
		<path class="st0" d="M401.5,60c0,0.4,0,0.8,0.1,1.2c0.4,3.1,2.1,6.1,5,8l0,0c0,0,0,0,0,0c5.2,3.4,12.1,1.9,15.5-3.2
			s1.9-12.1-3.2-15.5c0,0,0,0,0,0l0,0c-1-0.6-2-1.1-3-1.4c0,0,0,0,0,0c-3.9-1.1-8.1,0-11,2.9c-0.5,0.5-1,1.1-1.4,1.8
			c-0.2,0.3-0.4,0.7-0.6,1c-0.3,0.6-0.5,1.1-0.7,1.7C401.7,57.6,401.5,58.8,401.5,60z"/>
		<g>
			<path class="st4" d="M417.7,58.1c-0.6-0.4-1.2-0.4-1.6,0.2l-0.4,0.5c-0.6,0.9-0.5,1.8,0.5,2.4l-0.8,1.2c-0.5-0.4-1-0.5-1.5-0.4
				c-0.4,0.1-0.8,0.4-1.1,0.9l-0.1,0.2c-0.4,0.6-0.4,1.1,0.2,1.4c0.3,0.2,0.6,0.2,0.9,0.1c0.2-0.1,0.4-0.3,0.6-0.6l0.2-0.2l1.4,0.9
				l-0.1,0.2c-0.4,0.7-1,1.1-1.6,1.3c-0.7,0.2-1.4,0.1-2.1-0.4c-0.6-0.4-1-1-1.1-1.7c-0.1-0.6,0.1-1.3,0.5-1.8l0.3-0.4
				c0.4-0.6,0.9-0.9,1.5-1.1c0.3-0.1,0.5-0.1,0.8-0.1c-0.3-0.5-0.3-1.1-0.2-1.7c0-0.3,0.2-0.7,0.4-1l0.5-0.7
				c0.5-0.7,1.1-1.1,1.8-1.2c0.7-0.1,1.4,0,2,0.5c0.6,0.4,1,1,1.1,1.7c0.1,0.7,0,1.4-0.4,2l-0.2,0.2l-1.4-0.8l0.2-0.3
				c0.1-0.2,0.2-0.5,0.1-0.7C418.1,58.4,417.9,58.2,417.7,58.1z"/>
			<path class="st4" d="M409.6,53.7c0.4-0.6,1-1,1.7-1.1c0.7-0.1,1.4,0,2,0.4l0.1,0.1c0.6,0.4,1,1,1.1,1.7c0.1,0.7,0,1.4-0.4,2
				l-0.6,0.8c-0.4,0.6-0.9,0.9-1.6,1.1c-0.3,0.1-0.6,0.1-0.9,0.1c0.2,0.4,0.3,1,0.2,1.5c-0.1,0.3-0.2,0.6-0.4,1l-0.3,0.5
				c-0.4,0.6-0.9,1-1.5,1.1c-0.7,0.2-1.4,0-2-0.4l-0.1-0.1c-0.6-0.4-1-1-1.1-1.7c-0.1-0.6,0.1-1.3,0.5-1.8l0.3-0.5
				c0.4-0.6,0.9-0.9,1.5-1.1c0.3-0.1,0.5-0.1,0.8-0.1c-0.3-0.5-0.3-1.1-0.2-1.7c0-0.3,0.2-0.7,0.4-1L409.6,53.7z M407.7,59.3
				c-0.4,0.6-0.5,1.2-0.2,1.6c0.1,0.1,0.2,0.2,0.3,0.3c0.2,0.2,0.5,0.2,0.7,0.2c0.2,0,0.4-0.1,0.5-0.2c0.2-0.1,0.3-0.3,0.5-0.6
				c0.3-0.4,0.4-0.7,0.4-1c0-0.3-0.1-0.6-0.5-0.8c-0.3-0.2-0.7-0.3-1-0.1C408.2,58.7,407.9,58.9,407.7,59.3z M410.5,55.3
				c-0.4,0.5-0.5,1-0.4,1.4c0.1,0.2,0.2,0.3,0.4,0.5c0.4,0.3,0.7,0.3,1.1,0c0.2-0.1,0.4-0.4,0.6-0.7l0.3-0.4
				c0.2-0.3,0.3-0.6,0.2-0.9c0-0.3-0.2-0.5-0.4-0.7c-0.4-0.2-0.8-0.2-1.2,0c-0.1,0.1-0.3,0.2-0.4,0.4L410.5,55.3z"/>
		</g>
	</g>
	<g>
		<path class="st1" d="M376.1,46.6c0.6,3.5,2.7,6.6,6.1,8.3v0c0,0,0,0,0,0c5.6,2.7,12.3,0.4,15-5.1s0.4-12.3-5.1-15
			c-1-0.5-2-0.8-3-1c-0.8-0.1-1.6-0.2-2.3-0.2c0,0,0,0,0,0c-1.4,0.1-2.7,0.4-4,0.9c-0.1,0-0.1,0.1-0.2,0.1c0,0,0,0,0,0
			c-0.4,0.2-0.8,0.4-1.2,0.7c-1.4,0.9-2.7,2.1-3.6,3.6c-0.2,0.3-0.4,0.7-0.6,1c-0.3,0.7-0.6,1.4-0.8,2.1c-0.4,1.4-0.4,2.8-0.3,4.2
			C376,46.4,376,46.5,376.1,46.6z"/>
		<g>
			<path class="st4" d="M393.7,41l-3.9,7.7l1.3,0.6l-0.5,1c-0.4-0.1-0.8-0.2-1.2-0.1c-0.4,0.1-0.8,0.2-1.1,0.5l-1-0.5l5-9.9
				L393.7,41z"/>
			<path class="st4" d="M380.4,46.7l0.8-1.5l6.3-7.4l1.5,0.7l-6.3,7.4l3,1.5l-0.8,1.5L380.4,46.7z"/>
		</g>
	</g>
	<g>
		<path class="st3" d="M31.8,356.5c5.9-1.7,9.4-7.9,7.6-13.9c0,0,0,0,0,0l0,0c0-0.1-0.1-0.3-0.1-0.4c-0.2-0.7-0.5-1.3-0.8-1.9
			c-0.3-0.5-0.6-0.9-0.9-1.4c-0.1-0.2-0.2-0.3-0.4-0.5c-0.8-1-1.8-1.8-2.9-2.4c-0.1,0-0.1-0.1-0.2-0.1c-1.2-0.7-2.5-1.1-3.9-1.3
			c-0.4-0.1-0.8-0.1-1.3-0.1c-1.1,0-2.2,0.1-3.3,0.4c-0.7,0.2-1.4,0.5-2.1,0.8c-1,0.5-1.9,1.2-2.6,1.9c0,0-0.1,0.1-0.1,0.1
			c-1,1-1.7,2.1-2.3,3.4c-0.1,0.2-0.2,0.5-0.3,0.7c0,0.1-0.1,0.2-0.1,0.3c0,0.1,0,0.1-0.1,0.2c-0.3,1-0.5,2-0.5,3
			c0,1.1,0.1,2.2,0.4,3.3c0,0,0,0,0,0.1l0,0c0,0,0,0,0,0C19.6,354.8,25.8,358.2,31.8,356.5z"/>
		<path class="st4" d="M26.8,349.5c-0.7,0.2-1.3,0.1-2-0.2c-0.6-0.4-1-0.9-1.2-1.6l0-0.1c-0.2-0.7-0.1-1.4,0.2-2
			c0.3-0.6,0.9-1,1.5-1.2l0.9-0.3c0.6-0.2,1.3-0.1,1.9,0.2c0.3,0.1,0.5,0.3,0.7,0.5c0.1-0.5,0.4-0.9,0.8-1.3
			c0.2-0.2,0.5-0.3,0.9-0.5l0.6-0.2c0.7-0.2,1.3-0.2,1.8,0.1c0.6,0.3,1,0.8,1.3,1.6l0,0.1c0.2,0.7,0.1,1.4-0.2,2
			c-0.3,0.5-0.8,0.9-1.5,1.1l-0.6,0.2c-0.6,0.2-1.2,0.2-1.8-0.1c-0.2-0.1-0.4-0.3-0.6-0.4c-0.1,0.5-0.4,1-0.9,1.4
			c-0.2,0.2-0.5,0.4-0.9,0.5L26.8,349.5z M27.1,347.7c0.6-0.2,1-0.4,1.1-0.8c0.1-0.2,0.1-0.4,0-0.6c-0.1-0.4-0.4-0.7-0.8-0.7
			c-0.2,0-0.5,0-0.9,0.1l-0.5,0.1c-0.3,0.1-0.6,0.3-0.7,0.6c-0.1,0.2-0.2,0.5-0.1,0.8c0.1,0.4,0.4,0.7,0.9,0.7c0.2,0,0.3,0,0.5,0
			L27.1,347.7z M31.7,346.4c0.7-0.2,1.1-0.6,1.1-1.1c0-0.1,0-0.2,0-0.4c-0.1-0.3-0.2-0.5-0.4-0.6c-0.2-0.1-0.3-0.2-0.6-0.2
			c-0.2,0-0.5,0-0.7,0.1c-0.4,0.1-0.7,0.3-0.9,0.5c-0.2,0.2-0.3,0.6-0.2,0.9c0.1,0.4,0.3,0.6,0.7,0.7
			C31,346.5,31.3,346.5,31.7,346.4z"/>
	</g>
	<g>
		<path class="st0" d="M49,369.2C49,369.2,49,369.2,49,369.2L49,369.2c-0.1-0.3-0.3-0.7-0.5-1c0,0,0,0,0,0
			c-2.6-4.6-8.1-6.8-13.1-5.2c-0.4,0.1-0.7,0.2-1.1,0.4c-0.7,0.3-1.4,0.7-2,1.1c-0.5,0.3-0.9,0.7-1.3,1c-0.6,0.6-1.1,1.2-1.6,1.8
			c-0.2,0.3-0.4,0.6-0.6,0.9c0,0.1-0.1,0.2-0.1,0.2c0,0,0,0.1,0,0.1c-1.2,2.5-1.6,5.4-0.7,8.2c0.1,0.2,0.2,0.5,0.3,0.7
			c0.1,0.2,0.1,0.4,0.2,0.5l0,0c0,0,0,0,0,0c2.5,5.7,9,8.3,14.7,5.8C48.9,381.5,51.5,374.9,49,369.2z"/>
		<g>
			<path class="st4" d="M35.1,368.9l7.4,0l0.7,1.5l-6.3,2.7l0.4,1l-1.5,0.6l-0.4-1l-2.1,0.9l-0.7-1.5l2.1-0.9l-1.2-2.7L35.1,368.9z
				 M36.2,371.6l3.1-1.3l-3.6,0.1L36.2,371.6z"/>
			<path class="st4" d="M45.2,374.9c0.3,0.7,0.3,1.3,0,2c-0.3,0.6-0.7,1.1-1.4,1.3l-5.4,2.3c-0.7,0.3-1.3,0.3-2,0.1
				c-0.6-0.2-1.1-0.7-1.4-1.3c-0.3-0.7-0.3-1.3,0-2c0.3-0.6,0.7-1.1,1.4-1.3l0.2-0.1l0.7,1.6l-0.2,0.1c-0.2,0.1-0.4,0.3-0.5,0.5
				c-0.1,0.2-0.1,0.4,0,0.7c0.1,0.2,0.3,0.4,0.5,0.5c0.2,0.1,0.5,0,0.7-0.1l2-0.9c-0.5-0.2-0.8-0.5-1-1c-0.3-0.7-0.3-1.3,0-1.8
				c0.3-0.5,0.8-0.9,1.5-1.2l1.7-0.7l0,0c0.5-0.2,0.9-0.2,1.4-0.1c0.5,0.1,0.9,0.3,1.2,0.6C44.9,374.3,45.1,374.6,45.2,374.9z
				 M43.1,376.7c0.2-0.1,0.4-0.3,0.5-0.5c0.1-0.2,0.1-0.4,0-0.7c-0.1-0.2-0.3-0.4-0.5-0.5c-0.2-0.1-0.5,0-0.7,0.1l-1.8,0.8
				c-0.3,0.1-0.5,0.3-0.6,0.6c0,0.1,0,0.3,0,0.5c0.2,0.4,0.5,0.5,0.9,0.5c0.1,0,0.2-0.1,0.3-0.1L43.1,376.7z"/>
		</g>
	</g>
	<g>
		<path class="st1" d="M272.7,6.6C272.7,6.6,272.7,6.6,272.7,6.6L272.7,6.6c-3.1,0-5.9,1.2-7.9,3.2c0,0,0,0,0,0
			c-1.2,1.2-2.1,2.6-2.6,4.2c-0.4,1.2-0.6,2.4-0.6,3.7v0l0,0c0,0.8,0.1,1.5,0.2,2.3c0.1,0.7,0.4,1.4,0.7,2.1c0.7,1.6,1.7,3,3,4.2
			c0.1,0.1,0.3,0.2,0.4,0.3c1,0.8,2.2,1.5,3.5,1.9c0.3,0.1,0.6,0.2,0.9,0.2c0,0,0.1,0,0.1,0c0.7,0.1,1.3,0.2,2,0.2
			c0.1,0,0.2,0,0.2,0l0,0c0,0,0,0,0,0c6.2,0,11.2-5,11.2-11.2S278.9,6.6,272.7,6.6z"/>
		<g>
			<path class="st4" d="M277.1,12.2l-0.1,8.3l1.4,0l0,1.1c-0.4,0-0.8,0.2-1.1,0.4c-0.4,0.2-0.6,0.5-0.8,0.9l-1.2,0l0.1-10.8
				L277.1,12.2z"/>
			<path class="st4" d="M270,23.1c-0.7,0-1.3-0.3-1.8-0.8c-0.5-0.5-0.7-1.1-0.7-1.8l0-5.9c0-0.7,0.2-1.3,0.7-1.8
				c0.5-0.5,1.1-0.7,1.8-0.7c0.7,0,1.3,0.3,1.8,0.8c0.5,0.5,0.7,1.1,0.7,1.8l0,0.2l-1.7,0l0-0.3c0-0.3-0.1-0.5-0.2-0.7
				c-0.1-0.2-0.3-0.3-0.6-0.3c-0.3,0-0.5,0.1-0.6,0.3c-0.1,0.2-0.2,0.4-0.2,0.7l0,2.2c0.4-0.3,0.8-0.5,1.3-0.5
				c0.7,0,1.3,0.3,1.6,0.8c0.3,0.4,0.5,1,0.5,1.8l0,1.9l0,0c0,0.5-0.2,0.9-0.4,1.3c-0.3,0.4-0.6,0.7-1.1,0.9
				C270.6,23,270.3,23.1,270,23.1z M269.1,20.5c0,0.3,0.1,0.5,0.2,0.7c0.1,0.2,0.3,0.3,0.6,0.3c0.3,0,0.5-0.1,0.6-0.3
				c0.1-0.2,0.2-0.4,0.2-0.7l0-2c0-0.3-0.1-0.6-0.3-0.8c-0.1-0.1-0.3-0.1-0.5-0.1c-0.4,0-0.7,0.2-0.8,0.6c0,0.1,0,0.2,0,0.3
				L269.1,20.5z"/>
		</g>
	</g>
</g>
</svg>
